<?xml version="1.0" encoding="utf-8"?>
<!-- Generator: Adobe Illustrator 25.2.3, SVG Export Plug-In . SVG Version: 6.00 Build 0)  -->
<svg version="1.1" id="Layer_1" xmlns="http://www.w3.org/2000/svg" xmlns:xlink="http://www.w3.org/1999/xlink" x="0px" y="0px"
	 viewBox="0 0 204.9 201.7" style="enable-background:new 0 0 204.9 201.7;" xml:space="preserve">
<style type="text/css">
	.st0{fill:#2A2B87;}
	.st1{fill:#FFFFFF;}
	.st2{fill:#00AEEF;}
	.st3{fill:#282781;}
</style>
<g>
	<g>
		<g id="XMLID_9164_">
			<path class="st0" d="M47.6,94.1C21.9,94.1,1,73.2,1,47.6C1,21.9,21.9,1,47.6,1s46.5,20.9,46.5,46.5
				C94.1,73.2,73.2,94.1,47.6,94.1z"/>
			<path class="st0" d="M47.6,0C21.3,0,0,21.3,0,47.6c0,26.2,21.3,47.6,47.6,47.6c26.2,0,47.6-21.3,47.6-47.6S73.8,0,47.6,0z"/>
		</g>
		<g id="XMLID_9163_">
			<path class="st0" d="M136.3,16.2c-0.3,0-1.8-0.1-2.7-0.9l-0.2-0.2c-0.2-0.2-0.4-0.3-0.7-0.3c-0.1,0-0.1,0-0.2,0
				c-0.3,0-0.6,0.2-0.7,0.5c-0.3,0.5-0.8,0.8-1.4,0.8h-0.2c-0.4,0-0.7-0.1-1-0.3c-0.2-0.1-0.4-0.2-0.6-0.2c-0.2,0-0.4,0.1-0.6,0.2
				c-0.3,0.2-0.6,0.3-1,0.3h-2.8c-0.2,0-0.4,0-0.6-0.1c-0.1,0-0.2,0-0.3,0c-0.1,0-0.2,0-0.3,0c-0.2,0.1-0.4,0.1-0.6,0.1h-2.3
				c-0.2,0-0.5,0-0.7-0.1c-0.1,0-0.2,0-0.3,0c-0.1,0-0.2,0-0.3,0c-0.1,0-0.4,0.1-0.7,0.1c-0.3,0-0.5,0-0.7-0.1
				c-0.1,0-0.2-0.1-0.4-0.1c-0.1,0-0.2,0-0.3,0.1c-0.3,0.1-0.7,0.2-1.1,0.2c-0.6,0-1.3-0.2-1.8-0.4c-0.2-0.1-0.3-0.1-0.5-0.1
				s-0.4,0.1-0.6,0.2c-0.3,0.2-0.6,0.3-1,0.3h-0.2c-0.2,0-0.5,0-0.7-0.1c-0.1,0-0.2-0.1-0.3-0.1c-0.1,0-0.2,0-0.3,0.1
				c-0.2,0.1-0.5,0.1-0.8,0.1c-0.4,0-0.8-0.1-1.1-0.3c-0.2-0.1-0.3-0.1-0.5-0.1s-0.4,0.1-0.6,0.2c-0.3,0.2-0.6,0.3-1,0.3H106
				c-0.4,0-0.7-0.1-0.9-0.2c-0.2-0.1-0.4-0.2-0.5-0.2c-0.2,0-0.4,0-0.5,0.1c-0.3,0.2-0.7,0.3-1.1,0.3s-0.8-0.1-1.1-0.3
				c-0.2-0.1-0.3-0.1-0.5-0.1s-0.4,0-0.5,0.1c-0.3,0.2-0.7,0.3-1.1,0.3c-1,0-1.7-0.5-1.9-1.3l-1.4-5l0.3-0.4
				c0.4-0.5,1.1-0.9,1.8-0.9c0.3,0,0.7,0.1,1.1,0.3c0.2,0.1,0.4,0.2,0.6,0.2c0.1,0,0.3,0,0.4-0.1c0.2-0.1,0.5-0.1,0.9-0.1
				c0.3,0,0.6,0,0.8,0.1c0.1,0,0.2,0.1,0.4,0.1c0.2,0,0.4-0.1,0.6-0.2c0.3-0.2,0.7-0.3,1.1-0.3c0.2,0,0.5,0,0.7,0.1
				c0.1,0,0.2,0,0.3,0c0.1,0,0.2,0,0.3-0.1c0.2-0.1,0.4-0.1,0.7-0.1h1.7c0.6,0,1.2,0.1,1.6,0.3c0.1,0.1,0.3,0.1,0.4,0.1
				c0.2,0,0.4-0.1,0.6-0.2c0.3-0.2,0.6-0.3,1-0.3h0.2c0.4,0,0.8,0.1,1.1,0.3c0.2,0.1,0.4,0.2,0.6,0.2s0.3,0,0.5-0.1
				c0.6-0.3,1.4-0.5,2.2-0.5c0.7,0,1.4,0.1,1.9,0.4c0.1,0.1,0.3,0.1,0.5,0.1s0.4-0.1,0.6-0.2c0.3-0.2,0.6-0.3,1-0.3h0.2
				c0.5,0,0.9,0.2,1.2,0.5c0.2,0.2,0.5,0.3,0.7,0.3l0,0c0.3,0,0.5-0.1,0.7-0.3c0.4-0.3,0.8-0.5,1.3-0.5h2.3c0.2,0,0.5,0,0.6,0.1
				c0.1,0,0.2,0,0.3,0c0.1,0,0.2,0,0.3,0c0.2-0.1,0.4-0.1,0.7-0.1c0.4,0,0.9,0.1,1.2,0.4c0.2,0.1,0.4,0.2,0.6,0.2
				c0.2,0,0.4-0.1,0.6-0.2c0.4-0.3,0.9-0.3,1.1-0.3c0.2,0,0.3,0,0.5,0.1c0.1,0,0.2,0,0.3,0s0.2,0,0.3,0c0.2,0,0.3-0.1,0.5-0.1
				s0.5,0.1,0.7,0.2c0.1,0.1,0.3,0.1,0.4,0.1c0.1,0,0.3,0,0.4-0.1c0.7-0.3,1.3-0.3,1.4-0.3c0.3,0,1.6,0,2.6,0.8l0.5,0.4l-0.1,0.7
				c-0.1,0.2-0.2,0.5-0.3,0.7c-0.2,0.3-0.2,0.7,0,1.1c0.1,0.1,0.1,0.2,0.2,0.4c0.1,0.3,0.2,0.7,0.2,1c0,0.9-0.3,1.6-0.9,2.1
				C138,16,137.3,16.2,136.3,16.2z"/>
			<path class="st0" d="M140.1,11.5c0.2-0.3,0.3-0.7,0.4-1.1l0.1-0.8c0-0.3-0.1-0.5-0.3-0.7l-0.6-0.5c-1.2-1-2.8-1.1-3.2-1.1
				c-0.2,0-1,0-1.8,0.4c-0.6-0.3-1.3-0.3-1.9-0.1c-0.3-0.1-0.6-0.1-0.8-0.1c-0.4,0-1.1,0.1-1.7,0.5c-0.8-0.5-1.8-0.7-2.7-0.4
				c-0.3-0.1-0.6-0.1-1-0.1h-2.3c-0.8,0-1.5,0.3-2,0.8c-0.5-0.5-1.2-0.8-2-0.8h-0.2c-0.6,0-1.1,0.1-1.5,0.4c-1.4-0.7-3.5-0.7-5,0.1
				c-0.5-0.4-1.1-0.6-1.7-0.6h-0.2c-0.6,0-1.1,0.1-1.5,0.4c-0.6-0.3-1.3-0.4-2.1-0.4h-1.7c-0.4,0-0.7,0.1-1,0.2
				c-0.9-0.3-2-0.2-2.7,0.4c-0.7-0.3-1.7-0.3-2.4,0C99,7,96.8,7.5,96,8.8l-0.4,0.5c-0.1,0.2-0.2,0.4-0.1,0.6l1.5,5.2
				c0.4,1.3,1.5,2.1,2.9,2.1c0.6,0,1.2-0.1,1.6-0.4c0.9,0.5,2.4,0.5,3.3,0c0.4,0.2,0.8,0.4,1.5,0.4h0.2c0.6,0,1.1-0.1,1.5-0.4
				c0.8,0.4,1.8,0.5,2.7,0.2c0.3,0.1,0.7,0.2,1,0.2h0.2c0.6,0,1.2-0.2,1.7-0.5c1.1,0.6,2.5,0.8,3.8,0.3c0.7,0.3,1.5,0.2,2,0
				c0.3,0.1,0.6,0.1,1,0.1h2.3c0.3,0,0.6,0,0.9-0.1c0.3,0.1,0.6,0.1,0.9,0.1h2.8c0.7,0,1.1-0.2,1.5-0.4c0.4,0.3,0.9,0.4,1.5,0.4h0.2
				c1,0,1.9-0.5,2.3-1.3L133,16c1.2,1.1,3,1.2,3.4,1.2c1.2,0,2.2-0.3,2.9-0.9c0.9-0.7,1.3-1.7,1.3-2.9c0-0.5-0.1-1-0.2-1.4
				C140.3,11.8,140.2,11.6,140.1,11.5z"/>
		</g>
		<path id="XMLID_9151_" class="st1" d="M118.3,12.1c0.2,0,0.5,0.1,0.5,0.4v2.4c0,0-0.2,0.1-0.4,0.1c-0.4,0-0.7-0.3-0.7-0.6v-0.3
			c-0.4,0.6-1,0.9-1.8,0.9c-1.8,0-2.7-1.2-2.7-2.7c0-1.3,0.9-3,3-3c1.5,0,2.2,0.6,2.2,1.2c0,0.3-0.2,0.6-0.7,0.7
			c-0.3-0.4-0.8-0.6-1.3-0.6c-1.1,0-1.7,0.9-1.7,1.8s0.5,1.5,1.3,1.5c0.5,0,0.9-0.3,1-0.7h-0.5c-0.4,0-0.6-0.3-0.6-0.7
			c0-0.2,0.1-0.3,0.1-0.4L118.3,12.1 M111.8,9.5h-0.2c-0.4,0-0.6,0.2-0.6,0.7v4.2c0,0.5,0.2,0.7,0.6,0.7h0.2c0.4,0,0.6-0.2,0.6-0.7
			v-4.3C112.5,9.7,112.3,9.5,111.8,9.5 M110.3,11.3c0,0.8-0.5,1.4-1.2,1.6l1.4,1.7c-0.1,0.2-0.4,0.4-0.9,0.4c-0.4,0-0.7-0.1-0.9-0.5
			c-0.3-0.3-1.1-1.4-1.1-1.4H107v1.1c0,0.2,0,0.4-0.1,0.5s-0.3,0.2-0.5,0.2h-0.2c-0.2,0-0.4-0.1-0.5-0.2s-0.2-0.3-0.2-0.5v-4.1
			c0-0.3,0.1-0.5,0.2-0.6s0.3-0.2,0.6-0.2h1.7C109.9,9.5,110.3,10.6,110.3,11.3 M107.9,12.1c0.6,0,1-0.2,1-0.7s-0.4-0.7-1-0.7H107
			v1.4H107.9 M122.6,13.8h-1.7v-3.7c0-0.5-0.2-0.7-0.6-0.7h-0.2c-0.4,0-0.6,0.2-0.6,0.7v4.1c0,0.3,0.1,0.5,0.2,0.6s0.3,0.2,0.6,0.2
			h2.3c0.5,0,0.7-0.2,0.7-0.6l0,0C123.2,14,123,13.8,122.6,13.8 M104.4,9.5c-0.4,0-0.7,0.3-0.8,0.8c-0.1,0.6-0.5,2.6-0.6,2.7
			c0-0.1-0.7-2.4-0.7-2.6c-0.1-0.3-0.2-0.5-0.8-0.5c-0.6,0-0.8,0.3-0.8,0.5c-0.1,0.2-0.6,2.5-0.7,2.6c0-0.1-0.5-2.4-0.6-2.7
			c-0.1-0.5-0.4-0.8-0.8-0.8c-0.5,0-0.8,0.2-0.9,0.4l1.3,4.6c0.1,0.4,0.4,0.6,0.9,0.6c0.4,0,0.7-0.1,0.9-0.6c0,0,0.7-2.7,0.8-2.8
			c0,0.1,0.8,2.8,0.8,2.8c0.1,0.4,0.4,0.6,0.9,0.6s0.8-0.1,0.9-0.6l1.2-4.6C105.1,9.6,104.8,9.5,104.4,9.5 M132,9.5
			c-0.3,0-0.6,0.2-0.8,0.6c-0.1,0.3-0.9,1.7-0.9,1.8c0-0.1-0.8-1.5-0.9-1.8c-0.2-0.3-0.4-0.5-0.8-0.5c-0.5,0-0.8,0.2-0.9,0.4
			l1.9,3.2v1.3c0,0.5,0.2,0.7,0.6,0.7h0.2c0.4,0,0.6-0.2,0.6-0.7v-1.3l1.9-3.1C132.7,9.7,132.5,9.5,132,9.5 M127.1,13.8H125v-1h1.4
			c0.2,0,0.4,0,0.5-0.1s0.1-0.2,0.1-0.4l0,0c0-0.2,0-0.3-0.1-0.4s-0.3-0.1-0.5-0.1H125v-1h1.7c0.2,0,0.4-0.1,0.5-0.1
			c0.1-0.1,0.1-0.2,0.1-0.4v-0.2c0-0.2-0.1-0.3-0.1-0.4c-0.1-0.1-0.3-0.2-0.5-0.2h-2.3c-0.2,0-0.4,0.1-0.6,0.2
			c-0.1,0.1-0.2,0.4-0.2,0.6v3.9c0,0.3,0.1,0.5,0.2,0.6s0.3,0.2,0.6,0.2h2.8c0.2,0,0.4-0.1,0.5-0.2s0.1-0.3,0.1-0.5s0-0.3-0.1-0.4
			C127.5,13.9,127.3,13.8,127.1,13.8 M138.4,12.7c-0.1-0.2-0.2-0.3-0.3-0.5c-0.1-0.1-0.3-0.2-0.6-0.3c-0.2-0.1-0.5-0.2-0.8-0.2
			c-0.2,0-0.3-0.1-0.4-0.1c-0.1,0-0.2-0.1-0.3-0.1s-0.1-0.1-0.2-0.2c0-0.1-0.1-0.2-0.1-0.3v-0.1c0-0.3,0.3-0.4,0.6-0.4
			c0.4,0,0.9,0.1,0.9,0.2c0,0,0.2,0.1,0.4,0.1c0.4,0,0.7-0.3,0.8-0.7l0,0l0,0c-0.7-0.6-1.8-0.6-1.9-0.6l0,0c-0.1,0-0.9,0-1.5,0.5
			c-0.2,0.1-0.3,0.3-0.4,0.5c-0.1,0.2-0.2,0.5-0.2,0.8c0,0.2,0,0.4,0.1,0.6s0.2,0.3,0.3,0.5c0.1,0.1,0.3,0.2,0.5,0.3
			c0.2,0.1,0.4,0.2,0.7,0.2l0.8,0.2c0.4,0.1,0.3,0.5,0.3,0.5s0,0.5-0.8,0.5c-0.2,0-0.5,0-0.8-0.1c0,0-1.1-0.3-1.3,0.6l0,0l0,0
			c0.7,0.6,2,0.6,2,0.6c0.7,0,1.2-0.2,1.6-0.5c0.4-0.3,0.6-0.7,0.6-1.3C138.5,13.1,138.5,12.9,138.4,12.7 M134.1,9.7
			c-0.1-0.1-0.3-0.2-0.5-0.2s-0.3,0-0.4,0.1c-0.1,0.1-0.2,0.2-0.2,0.4c0,0.1,0,0.2,0.1,0.3c0,0.1,0.1,0.1,0.2,0.2
			c0.1,0,0.1,0.1,0.2,0.1l0.1,0.1c0,0.1,0,0.1-0.1,0.2s-0.2,0.1-0.4,0.1v0.5c0.9-0.1,1.3-0.5,1.3-1.3C134.3,10,134.3,9.8,134.1,9.7"
			/>
		<g id="XMLID_536_">
			<path class="st2" d="M47.6,2.6c24.9,0,45,20.2,45,45c0,24.9-20.2,45-45,45V2.6z"/>
			<path class="st2" d="M47.6,93.6c-0.6,0-1-0.5-1-1v-90c0-0.6,0.5-1,1-1c25.4,0,46,20.7,46,46C93.6,73,73,93.6,47.6,93.6z"/>
		</g>
		<g id="XMLID_9145_">
			<path class="st0" d="M78.4,21.6c-0.5,0-1.2-0.3-1.4-1.2c-0.3-1.7-1.7-5.9-7.1-7c-0.7-0.1-1.1-0.7-1.1-1.4c0-0.7,0.5-1.2,1.2-1.3
				c0.3,0,5.9-0.9,7.1-7.1c0.1-0.7,0.7-1.1,1.4-1.1c0.7,0,1.3,0.5,1.4,1.2c0,0.2,0.9,5.7,7.1,7.1c0.7,0.1,1.1,0.7,1.1,1.4
				c0,0.7-0.5,1.2-1.2,1.3c-0.3,0-5.8,0.9-7,7.1C79.6,21.2,79,21.6,78.4,21.6L78.4,21.6z"/>
			<path class="st0" d="M87.1,9.7c-5.5-1.2-6.3-6-6.3-6.2c-0.2-1.2-1.1-2.1-2.3-2.1c-1.2,0-2.2,0.8-2.5,2c-1.1,5.5-6,6.3-6.2,6.3
				c-1.2,0.2-2.1,1.1-2.1,2.3s0.8,2.2,1.9,2.5c4.9,1,6.1,4.7,6.3,6.2c0.3,1.4,1.4,2.1,2.4,2.1l0,0c1.2,0,2.2-0.8,2.4-2
				c1.1-5.5,6-6.3,6.1-6.3c1.2-0.2,2.1-1.1,2.1-2.3C89.1,11,88.2,9.9,87.1,9.7z"/>
		</g>
		<path id="XMLID_9144_" class="st1" d="M78.4,3.8c0,0,0.8,6.7,8.2,8.3c0,0-6.7,0.9-8.2,8.2c0,0.1-0.7-6.7-8.3-8.2
			C70.1,12,76.9,11.1,78.4,3.8"/>
		<g id="XMLID_528_">
			<path class="st0" d="M47.6,77.3c-16.1,0-29.2-13.4-29.2-29.8s13.1-29.8,29.2-29.8c13.9,0,26,10.1,28.6,24.1
				c0.1,0.5,0.5,0.8,1,0.8h0.1c0.5,0,0.9-0.5,0.9-1v-1c0-2.1,0.8-4.1,2.3-5.6s3.5-2.3,5.6-2.3h4.1c0.6,0,1.2,0.4,1.3,1.1
				c0.1,0.3,0.3,0.6,0.6,0.7c0.1,0.1,0.3,0.1,0.4,0.1c0.2,0,0.4-0.1,0.5-0.2c2.2-1.4,5-2.1,7.6-2.1c1.2,0,2.3,0.1,3.3,0.4
				c0.1,0,0.3,0.1,0.4,0.2c0.2,0.1,0.4,0.2,0.6,0.2s0.3,0,0.5-0.1c0.3-0.2,0.5-0.5,0.5-0.9v-2.9c0-4.3,3.5-7.9,7.9-7.9h5.8
				c0.8,0,1.4,0.6,1.4,1.4v9.8c0,0.4,0.2,0.7,0.5,0.9c0.2,0.1,0.3,0.1,0.5,0.1s0.3,0,0.5-0.1c2.1-1.1,4.6-1.7,7.7-1.7
				c4.7,0,9.1,2.1,12.4,5.8c2,2.2,3.4,5,4.3,8.1c0.1,0.4,0.5,0.8,1,0.8h0.1c0.5-0.1,0.9-0.5,0.9-1v-5c0-3.1,1.8-5.8,4.6-7
				c0.4-0.2,0.6-0.5,0.6-1c0-0.5-0.3-0.8-0.6-0.9c-3-1.2-4.9-4.1-4.9-7.3c0-4.3,3.5-7.8,7.8-7.8s7.8,3.5,7.8,7.8
				c0,2.7-1.4,5.2-3.7,6.6c-0.4,0.2-0.6,0.7-0.4,1.2c0.1,0.4,0.5,0.7,1,0.7h4.4c0.2,0,0.5-0.1,0.7-0.2l11.6-9.6
				c0.2-0.2,0.6-0.3,0.9-0.3c0.2,0,0.4,0,0.6,0.1c0.5,0.2,0.8,0.7,0.8,1.2v7.8c0,0.6,0.5,1,1,1h8.1c0.8,0,1.4,0.6,1.4,1.4v6.7
				c0,1.4-0.5,2.7-1.5,3.7s-2.3,1.5-3.7,1.5h-4.2c-0.6,0-1,0.5-1,1v7.2c0,3.6,2.3,4,3.2,4c1.1,0,2.5-0.4,4-1.1
				c0.2-0.1,0.4-0.1,0.6-0.1c0.2,0,0.4,0,0.6,0.1c0.4,0.2,0.6,0.5,0.8,0.9l2.9,9.8c0.1,0.5,0,1-0.4,1.4c-2.3,2.1-6.4,3.4-10.8,3.4
				c-5.3,0-9.5-1.8-12.2-5.3c-1.2-1.5-2.1-3.3-2.7-5.4c-0.1-0.4-0.5-0.7-1-0.7c0,0-0.1,0-0.2,0c-0.5,0.1-0.9,0.5-0.9,1v8.2
				c0,0.8-0.6,1.4-1.4,1.4h-12.4c-0.8,0-1.4-0.6-1.4-1.4v-11c0-0.5-0.4-1-0.9-1h-0.1c-0.5,0-0.9,0.3-1,0.7c-0.9,3.1-2.3,5.8-4.3,8
				c-3.3,3.7-7.7,5.8-12.4,5.8c-2.9,0-5.7-0.7-8-2.1c-0.2-0.1-0.3-0.1-0.5-0.1c-0.1,0-0.2,0-0.3,0c-0.3,0.1-0.5,0.2-0.6,0.5
				c-0.2,0.4-0.7,0.7-1.2,0.7h-12.3c-0.8,0-1.4-0.6-1.4-1.4V49c0-0.4-0.3-0.8-0.7-1c-1.5-0.5-2.6-0.9-5.1-0.9
				c-4.3,0-6.4,2.3-6.4,7.1v16.3c0,0.8-0.6,1.4-1.4,1.4H79.7c-0.8,0-1.4-0.6-1.4-1.4V53.4c0-0.5-0.4-1-0.9-1h-0.1
				c-0.5,0-0.9,0.3-1,0.8C73.6,67.1,61.6,77.3,47.6,77.3z M47.6,35.1c-6.7,0-12.1,5.6-12.1,12.4S41,59.9,47.6,59.9
				s12.1-5.6,12.1-12.4S54.3,35.1,47.6,35.1z M126.8,46.4c-3.2,0-5.7,2.6-5.7,5.9c0,3.3,2.5,5.9,5.7,5.9s5.9-2.7,5.9-5.9
				C132.7,49.1,130,46.4,126.8,46.4z"/>
			<g>
				<path class="st0" d="M193.3,67.5l-2.9-9.8c-0.2-0.7-0.7-1.2-1.3-1.5c-0.3-0.1-0.7-0.2-1-0.2c-0.4,0-0.7,0.1-1,0.2
					c-1.4,0.7-2.6,1-3.6,1c-1.5,0-2.2-1-2.2-2.9v-0.1v-7.1h4.2c1.7,0,3.3-0.7,4.5-1.8c1.2-1.2,1.8-2.8,1.8-4.5v-6.7
					c0-1.3-1.1-2.4-2.4-2.4h-8.1v-7.8c0-0.9-0.5-1.8-1.4-2.2c-0.3-0.2-0.7-0.2-1-0.2c-0.6,0-1.1,0.2-1.5,0.6l-11.6,9.6h-4.4
					c2.5-1.6,4.2-4.4,4.2-7.5c0-4.9-4-8.9-8.9-8.9s-8.9,4-8.9,8.9c0,3.7,2.3,6.9,5.5,8.2c-3.1,1.3-5.3,4.4-5.3,8v5
					c-0.9-3.2-2.4-6.1-4.5-8.5c-3.5-4-8.2-6.2-13.2-6.2c-3.3,0-5.9,0.6-8.2,1.8v-9.8c0-1.3-1.1-2.4-2.4-2.4h-5.8
					c-4.9,0-8.9,4-8.9,8.9v2.9c-0.2-0.1-0.4-0.2-0.7-0.3c-1.2-0.3-2.3-0.5-3.6-0.5c-2.4,0-5.5,0.7-8.1,2.3c-0.3-1.1-1.2-1.8-2.3-1.8
					h-4.1c-2.4,0-4.6,0.9-6.3,2.6c-1.7,1.7-2.6,3.9-2.6,6.3v1c-2.7-14.2-15-25-29.6-25c-16.6,0-30.2,13.8-30.2,30.9
					c0,17,13.5,30.9,30.2,30.9c14.7,0,26.9-10.8,29.6-25v17.1c0,1.3,1.1,2.4,2.4,2.4h12.8c1.3,0,2.4-1.1,2.4-2.4V54.2
					c0-4.2,1.7-6,5.4-6c2.3,0,3.3,0.3,4.8,0.8v21.5c0,1.3,1.1,2.4,2.4,2.4h12.3c0.9,0,1.7-0.5,2.1-1.2c2.4,1.4,5.3,2.3,8.5,2.3
					c5,0,9.7-2.2,13.2-6.1c2.1-2.3,3.6-5.2,4.5-8.4v11c0,1.3,1.1,2.4,2.4,2.4h12.4c1.3,0,2.4-1.1,2.4-2.4v-8.2
					c0.7,2.2,1.6,4.1,2.9,5.7c2.9,3.7,7.4,5.7,13,5.7c4.7,0,8.9-1.4,11.5-3.7C193.3,69.4,193.6,68.4,193.3,67.5z M47.6,58.9
					c-6.1,0-11.1-5.1-11.1-11.4s5-11.4,11.1-11.4s11.1,5.1,11.1,11.4C58.7,53.7,53.7,58.9,47.6,58.9z M126.8,57.2
					c-2.6,0-4.6-2.2-4.6-4.9c0-2.8,2-4.9,4.6-4.9c2.6,0,4.8,2.2,4.8,4.9C131.7,55,129.5,57.2,126.8,57.2z"/>
			</g>
		</g>
		<path id="XMLID_9133_" class="st1" d="M47.6,19c-15.3,0-27.8,12.7-27.8,28.4s12.4,28.4,27.8,28.4c15.3,0,27.8-12.7,27.8-28.4
			C75.4,31.8,63,19,47.6,19z M47.6,61.3c-7.4,0-13.5-6.2-13.5-13.8s6-13.8,13.5-13.8s13.5,6.2,13.5,13.8S55.1,61.3,47.6,61.3z
			 M179,23.9v10.2h10.5v6.7c0,2.1-1.7,3.9-3.9,3.9H179v9.7l0,0c0,2.7,1.3,5.3,4.6,5.3c1.2,0,2.8-0.4,4.6-1.2l2.9,9.8
			c-2,1.8-5.6,3.1-9.9,3.1c-10.3,0-14.5-7.1-14.5-16.7V34.2L179,23.9 M156.7,17.7c3.6,0,6.5,2.9,6.5,6.5s-2.9,6.5-6.5,6.5
			s-6.5-2.9-6.5-6.5S153.1,17.7,156.7,17.7 M130.4,33.1c-4.9,0-8,1.4-10.6,4.6v-15H114c-3.6,0-6.5,2.9-6.5,6.5v41.3h12.3v-4
			c2,3,5.9,5.1,10.6,5.1c8.7,0,16.3-7.8,16.3-19.1C146.6,40.9,139,33.1,130.4,33.1z M126.8,59.6c-3.9,0-7-3.1-7-7.3s3.2-7.3,7-7.3
			c4,0,7.3,3.4,7.3,7.3C134.1,56.4,130.8,59.6,126.8,59.6z M162.9,34.1v36.4h-12.4V40.3c0-3.5,2.8-6.3,6.3-6.3L162.9,34.1
			 M100.7,33.7c1.2,0,2.1,0.1,3,0.4v12.1c-1.2-0.3-2.3-0.4-3.4-0.4c-4.1,0-7.8,1.9-7.8,8.5v16.3H79.7v-30c0-3.6,2.9-6.5,6.5-6.5h4.1
			v5.2C92.6,35.1,97.4,33.7,100.7,33.7"/>
		<path id="XMLID_11035_" class="st0" d="M199.9,32.2c-2.8,0-5,2.2-5,4.9s2.2,4.9,5,4.9s5-2.2,5-4.9S202.6,32.2,199.9,32.2z
			 M199.9,40.7c-2,0-3.7-1.6-3.7-3.6s1.7-3.6,3.7-3.6s3.7,1.6,3.7,3.6S201.9,40.7,199.9,40.7z M200.9,37.8l1,1.4
			c0.1,0.2,0,0.4-0.2,0.4h-0.9c-0.1,0-0.3-0.1-0.3-0.2l-0.9-1.4h-0.2v1.3c0,0.1-0.1,0.3-0.3,0.3h-0.8c-0.1,0-0.3-0.1-0.3-0.3v-4.6
			c0-0.1,0.1-0.3,0.3-0.3h1.4c1.3,0,2.2,0.7,2.2,1.8C202,37,201.5,37.6,200.9,37.8z M199.8,36.9c0.4,0,0.8-0.2,0.8-0.6
			c0-0.5-0.5-0.6-1-0.6h-0.2v1.2C199.4,36.9,199.8,36.9,199.8,36.9z"/>
	</g>
	<g>
		<path class="st3" d="M172.1,81.6c2.7,0.8,5.1,3.2,7,5.7c3.4,4.5,4.2,9.4,2.4,14.8c-1.4,4-3.4,7.7-5.8,11.2
			c-3.1,4.5-6.8,8.6-10.6,12.6c-0.6,0.6-1.1,1.2-1.8,1.9c0.6,0.6,1.2,1.2,1.8,1.8c1.1,1.1,2.2,2.1,3.2,3.3c1.5,1.6,2.4,3.6,2.2,5.8
			c0,0.6-0.1,1.2-0.2,1.9c0.1-0.1,0.2-0.3,0.2-0.4c1.7-3,3.2-6.1,5.1-9c3.4-5.2,6.9-10.2,10.4-15.3c0.9-1.3,2.1-2.3,3.4-3.1
			c1.5-0.9,2.9-0.8,4.2,0.4c0.6,0.5,1.1,1.1,1.6,1.6c1.3,1.6,2.5,3.2,3.1,5.3c0.3,0.9,0.3,2.1,0.3,2.5c0,0.2-0.1,1-0.2,1.6
			c-0.1,0.4-0.2,0.9-0.4,1.3c-2.1,5.7-4.2,11.5-6.4,17.2c-0.3,0.8-0.6,1.5-1.1,2.2c-0.6,1-1.6,1.2-2.7,0.8c-0.4-0.1-0.7-0.3-1-0.6
			c-1-0.9-1.6-2-2-3.3c-0.3-1-0.4-2.1,0.1-3.1c0.3-0.6,0.5-1.3,0.7-1.9c1.3-3.5,2.6-7,3.9-10.5c0.1-0.3,0.2-0.7,0.2-1.1
			c0-0.3-0.2-0.1-0.2,0c-0.1,0.1-0.2,0.2-0.2,0.3c-5.7,7.6-10.7,15.8-14.9,24.4c-6.2,12.9-10.5,26.4-13.2,40.4
			c-0.1,0.6-0.1,0.7,0.2,0.9c0,0,0.3,0.1,0.5,0l0.1-0.1c1.6-1.9,3.2-3.8,4.8-5.7c2.1-2.5,4.1-5.1,6.2-7.6c0.8-1,1.7-1.9,2.8-2.6
			c1-0.7,1.9-0.8,3-0.2c0.2,0.1,0.4,0.2,0.6,0.3c0.6,0.3,1.2,0.8,2,0.6c0,0.1,0,0.2,0,0.3c-0.2,2.3-1.1,4.3-2.3,6.2
			c-1.2,1.8-2.6,3.6-3.9,5.4c-2.3,3.2-4.6,6.3-7.3,9.1c-0.8,0.9-1.7,1.7-2.7,2.4c-0.8,0.6-1.8,1-2.8,0.9c-0.6-0.1-1.3-0.2-1.8-0.5
			c-1.6-0.7-3.1-1.8-4.3-3.1c-2-2.1-2.4-4.6-2-7.3c0.5-3,1-5.9,1.6-8.8c2-9.4,4.9-18.4,8.6-27.3c0.7-1.6,1.4-3.2,2.1-4.8
			c0.2-0.5,0.4-0.9,0.2-1.5c-0.1,0.1-0.1,0.1-0.2,0.2c-0.9,1.1-1.8,2.2-2.6,3.4c-1.7,2.3-3.5,4.6-5.5,6.6c-3.8,3.9-8.2,7.1-13,9.7
			c-1.4,0.8-2.9,1.5-4.5,2.1c-1,0.4-2,0.3-2.8-0.4c-1-0.9-2-2-2.9-3c-0.5-0.6-0.6-1.3-0.4-2c0.1-0.5,0.2-0.9,0.4-1.3
			c2.7-7.1,5.5-14.3,8.2-21.4c0.1-0.1,0.1-0.3,0.2-0.5c-0.4,0.2-0.8,0.4-1.1,0.6c-1.7,0.7-2.9,0.5-4.1-0.9c-0.5-0.6-0.9-1.2-1.4-1.8
			c-0.3-0.3-0.6-0.6-1-1c-0.1,0.3-0.2,0.4-0.2,0.6c-3,8.1-6.1,16.2-9.6,24.1c-0.7,1.5-1.4,3.1-1.7,4.7c-0.7,2.9-1.4,5.8-2.4,8.7
			c-2.4,7.1-4.8,14.3-7.2,21.4c-0.2,0.6-0.4,1.3-0.7,1.9c-0.1-0.4-0.2-0.7-0.2-1c0-0.4-0.2-0.6-0.6-0.6c-0.5,1.5-1,3-1.5,4.5
			c-0.2-0.4-0.4-0.8-0.5-1.2c-0.5,0.5-1,1-1.5,1.4h-0.1c-0.1-0.7-0.2-1.3-0.3-2c-0.2-1.5-0.5-3.1-0.1-4.7c1.5-7.3,3.5-14.6,6-21.6
			c3.2-8.9,6.4-17.9,9.6-26.8c0.6-1.7,1.2-3.4,1.8-5.1c0.2-0.5,0.2-1.1,0-1.8c-0.4,0.7-0.8,1.3-1.1,2c-3.6,6.3-7.3,12.5-11.5,18.5
			c-0.5,0.6-1,1.3-1.6,1.8c-1.1,1-2.4,1.4-3.9,0.8c-1.2-0.4-2.3-0.9-3.4-1.4c-1.6-0.7-2.8-1.8-3.3-3.5c-0.2-0.6-0.2-1.3-0.3-1.9
			c-0.1-1-0.3-1.9-0.8-2.9c-0.1,0.2-0.1,0.4-0.2,0.6c-1.1,4-2.2,8-3.3,12.1c-1.2,4.5-2.3,8.9-3.5,13.4c-0.3,1.2-0.5,2.4-0.8,3.6
			s-0.9,1.7-2.1,1.5c-1.2-0.2-2.4-0.6-3.6-0.9c-1.1-0.3-2-0.9-2.2-2.1c0-0.4,0-0.6,0-1c0.2-0.8,0.3-1.5,0.5-2.3
			c1.9-6.4,3.8-12.8,5.7-19.2c3.6-11.9,7.1-23.7,10.7-35.6c0.5-1.8,1.1-3.6,1.7-5.3c0.3-1,0.8-1.9,1.4-2.8c0.5-0.8,1.2-1.1,2.1-0.7
			s1.8,0.9,2.7,1.4c2.1,1.4,2.9,3.4,2.5,5.9c-0.4,2.4-0.8,4.8-1.1,7.2c-0.6,4.1-1.1,8.2-1.7,12.2c-0.4,3.1-0.8,6.2-1.2,9.2
			c-0.2,1.2,0,2.5,0.5,3.6c0.1-0.1,0.1-0.2,0.2-0.3c0.9-1.3,1.8-2.6,2.6-4c4.6-7.4,9.2-14.8,13.9-22.2c2-3.1,3.8-6.4,6.3-9.2
			c0.7-0.9,1.4-1.8,2.2-2.6c0.7-0.8,1.7-1.2,2.8-0.8c0.6,0.2,1.1,0.6,1.6,1c0.6,0.4,1.2,0.9,1.9,1.3c0-0.2,0.1-0.3,0.1-0.5
			c0.3-1.7,0.6-3.4,1.1-5.1c0.6-2.5,1.7-4.8,2.8-7.2c3-6.3,6.9-12,12-16.7c1.6-1.5,2.7-2.5,5.1-3.9c1.2-0.7,1.8-1,2.9-1.4
			C167.3,80.9,170.7,81,172.1,81.6z M161.6,93c0.6,0.6,1,1.2,1.6,1.6c1.8,1.6,2.4,3.5,1.7,5.9c-0.8,2.5-1.4,5-2.2,7.5
			c-1.1,3.6-2.3,7.2-3.4,10.8c-0.1,0.2-0.1,0.4-0.2,0.7c0.2-0.1,0.2-0.2,0.3-0.2c1-0.9,2.1-1.9,3.1-2.8c3.5-3.4,6.5-7.3,9.2-11.3
			c2.1-3.2,3.8-6.5,4.7-10.2c0.3-1.2,0.5-2.4,0.6-3.6c0.2-1.5-0.5-2.3-1.9-2.6c-1.2-0.3-2.4-0.3-3.6-0.2
			C167.6,88.8,164.5,90.6,161.6,93z M160.5,93.9L160.5,93.9c-0.7,0.4-1.2,0.9-1.8,1.4c-0.3,0.3-0.5,0.5-0.7,0.8
			c-4,5.5-8.1,10.9-12.1,16.4c-0.9,1.2-1.9,2.4-2.5,3.9c-0.5,1.3-0.9,2.7-1.3,4c-1.3,4-2.6,7.9-4,11.9c-0.1,0.4-0.2,0.7-0.4,1.1
			l0.1,0.1c2.8-1.3,5.7-2.5,8.5-3.9c0.9-0.4,1.5-1.3,1.9-2.2c3.8-10.4,7.6-20.8,11.5-31.2C160,95.5,160.3,94.7,160.5,93.9z
			 M145.5,157C145.5,157,145.6,157.1,145.5,157c1.4-0.9,2.6-1.9,3.9-2.9c6.3-5.3,11.1-11.6,14.1-19.3c0.2-0.6,0.2-1-0.1-1.4
			c-0.1-0.1-0.3-0.2-0.4-0.2c-2.2,0.4-4.5,0.8-6.7,1.1c-1.9,0.3-3,1.4-3.8,3.1c-0.3,0.6-0.5,1.2-0.7,1.7c-1.3,3.7-2.6,7.4-3.9,11.1
			C147.1,152.4,146.3,154.7,145.5,157z"/>
		<g>
			<path class="st1" d="M52.8,147.3l12.6-13.7l-0.7,3.7l-6.8-12.8h6.9l4.4,8.6h-2.8l7.6-8.6h7.3l-11.8,12.9l0.2-3.6l7.4,13.5h-7
				l-4.6-9l2.9,0.1l-7.8,9h-7.8V147.3z"/>
		</g>
	</g>
</g>
</svg>
