<?xml version="1.0" encoding="utf-8"?>
<!-- Generator: Adobe Illustrator 25.2.3, SVG Export Plug-In . SVG Version: 6.00 Build 0)  -->
<svg version="1.1" id="Layer_1" xmlns="http://www.w3.org/2000/svg" xmlns:xlink="http://www.w3.org/1999/xlink" x="0px" y="0px"
	 viewBox="0 0 825.4 200" style="enable-background:new 0 0 825.4 200;" xml:space="preserve">
<style type="text/css">
	.st0{fill:#FFFFFF;}
	.st1{fill:#282781;}
</style>
<g>
	<g>
		<g>
			<rect x="625.4" class="st0" width="200" height="200"/>
			<g>
				<rect x="709.4" y="20" class="st1" width="6.4" height="6.4"/>
				<rect x="741.4" y="20" class="st1" width="6.4" height="6.4"/>
				<rect x="703" y="26.4" class="st1" width="6.4" height="6.4"/>
				<rect x="696.6" y="32.8" class="st1" width="6.4" height="6.4"/>
				<rect x="715.8" y="32.8" class="st1" width="6.4" height="6.4"/>
				<polygon class="st1" points="709.4,39.2 703,39.2 703,45.6 703,52 709.4,52 709.4,45.6 				"/>
				<polygon class="st1" points="754.2,39.2 754.2,32.8 741.4,32.8 741.4,26.4 735,26.4 735,32.8 735,39.2 741.4,39.2 741.4,45.6 
					754.2,45.6 				"/>
				<polygon class="st1" points="722.2,58.4 722.2,64.8 728.6,64.8 728.6,58.4 728.6,52 728.6,45.6 728.6,39.2 722.2,39.2 
					722.2,45.6 722.2,52 709.4,52 709.4,58.4 709.4,64.8 715.8,64.8 715.8,58.4 				"/>
				<polygon class="st1" points="741.4,52 741.4,45.6 735,45.6 735,52 735,58.4 735,64.8 741.4,64.8 741.4,58.4 747.8,58.4 
					747.8,52 				"/>
				<rect x="715.8" y="64.8" class="st1" width="6.4" height="6.4"/>
				<polygon class="st1" points="728.6,71.2 722.2,71.2 722.2,77.6 715.8,77.6 715.8,84 709.4,84 709.4,90.4 703,90.4 703,96.8 
					709.4,96.8 709.4,103.2 709.4,109.6 722.2,109.6 722.2,103.2 722.2,96.8 715.8,96.8 715.8,90.4 722.2,90.4 722.2,96.8 
					728.6,96.8 728.6,90.4 735,90.4 735,84 735,77.6 735,71.2 735,64.8 728.6,64.8 				"/>
				<rect x="786.2" y="71.2" class="st1" width="6.4" height="6.4"/>
				<rect x="703" y="77.6" class="st1" width="6.4" height="6.4"/>
				<rect x="773.4" y="77.6" class="st1" width="6.4" height="6.4"/>
				<rect x="792.6" y="77.6" class="st1" width="6.4" height="6.4"/>
				<rect x="696.6" y="84" class="st1" width="6.4" height="6.4"/>
				<rect x="779.8" y="84" class="st1" width="6.4" height="6.4"/>
				<polygon class="st1" points="690.2,96.8 683.8,96.8 683.8,103.2 696.6,103.2 696.6,96.8 696.6,90.4 690.2,90.4 				"/>
				<polygon class="st1" points="792.6,96.8 786.2,96.8 786.2,103.2 792.6,103.2 792.6,109.6 792.6,116 805.4,116 805.4,109.6 
					805.4,103.2 805.4,96.8 805.4,90.4 792.6,90.4 				"/>
				<rect x="645.4" y="96.8" class="st1" width="6.4" height="6.4"/>
				<polygon class="st1" points="671,109.6 677.4,109.6 677.4,116 696.6,116 696.6,109.6 683.8,109.6 683.8,103.2 671,103.2 				"/>
				<rect x="773.4" y="103.2" class="st1" width="6.4" height="6.4"/>
				<rect x="645.4" y="109.6" class="st1" width="6.4" height="6.4"/>
				<polygon class="st1" points="664.6,109.6 664.6,103.2 664.6,96.8 683.8,96.8 683.8,90.4 690.2,90.4 690.2,84 683.8,84 
					683.8,77.6 703,77.6 703,71.2 703,64.8 703,58.4 696.6,58.4 696.6,64.8 696.6,71.2 671,71.2 671,77.6 677.4,77.6 677.4,84 
					671,84 671,77.6 664.6,77.6 664.6,71.2 645.4,71.2 645.4,77.6 651.8,77.6 651.8,84 645.4,84 645.4,90.4 658.2,90.4 658.2,96.8 
					658.2,103.2 658.2,109.6 658.2,116 664.6,116 				"/>
				<rect x="703" y="109.6" class="st1" width="6.4" height="6.4"/>
				<rect x="779.8" y="109.6" class="st1" width="6.4" height="6.4"/>
				<rect x="651.8" y="116" class="st1" width="6.4" height="6.4"/>
				<rect x="664.6" y="116" class="st1" width="12.8" height="6.4"/>
				<rect x="715.8" y="116" class="st1" width="6.4" height="6.4"/>
				<polygon class="st1" points="741.4,116 735,116 735,109.6 741.4,109.6 741.4,103.2 728.6,103.2 728.6,109.6 728.6,116 
					728.6,122.4 741.4,122.4 				"/>
				<rect x="645.4" y="122.4" class="st1" width="6.4" height="6.4"/>
				<rect x="658.2" y="122.4" class="st1" width="6.4" height="6.4"/>
				<rect x="786.2" y="122.4" class="st1" width="6.4" height="6.4"/>
				<rect x="799" y="122.4" class="st1" width="6.4" height="6.4"/>
				<polygon class="st1" points="715.8,128.8 715.8,135.2 709.4,135.2 709.4,141.6 722.2,141.6 722.2,148 709.4,148 709.4,154.4 
					715.8,154.4 715.8,160.8 722.2,160.8 722.2,154.4 728.6,154.4 728.6,148 728.6,141.6 735,141.6 735,135.2 741.4,135.2 
					741.4,128.8 728.6,128.8 728.6,122.4 722.2,122.4 722.2,128.8 				"/>
				<polygon class="st1" points="792.6,135.2 792.6,141.6 792.6,148 805.4,148 805.4,141.6 805.4,135.2 799,135.2 799,128.8 
					792.6,128.8 				"/>
				<rect x="760.6" y="135.2" class="st1" width="6.4" height="6.4"/>
				<path class="st1" d="M786.2,135.2h-6.4v-6.4v-6.4h-6.4V116H767v-6.4h-12.8v-6.4v-6.4v-6.4h6.4v6.4v6.4h12.8v-6.4v-6.4H767V84
					v-6.4v-6.4h-12.8v-6.4v-6.4h-6.4v6.4v6.4v6.4h-6.4V84h6.4v6.4v6.4v6.4v6.4h-6.4v6.4h19.2v6.4h-12.8v6.4v6.4h-6.4v6.4h6.4v6.4
					h-6.4v-6.4H735v6.4v6.4h6.4v6.4v6.4h6.4v6.4v6.4h6.4v-6.4v-6.4v-6.4h6.4v-6.4h6.4v6.4h12.8v-6.4V148h6.4v-6.4L786.2,135.2
					L786.2,135.2z M754.2,77.6h6.4V84h-6.4V77.6z M773.4,148h-19.2v-6.4v-6.4v-6.4h19.2v6.4v6.4V148z"/>
				<polygon class="st1" points="709.4,148 709.4,141.6 703,141.6 703,135.2 703,128.8 715.8,128.8 715.8,122.4 683.8,122.4 
					683.8,128.8 696.6,128.8 696.6,135.2 696.6,141.6 696.6,148 696.6,154.4 703,154.4 703,148 				"/>
				<rect x="786.2" y="148" class="st1" width="6.4" height="6.4"/>
				<rect x="703" y="154.4" class="st1" width="6.4" height="6.4"/>
				<polygon class="st1" points="728.6,160.8 722.2,160.8 722.2,167.2 735,167.2 735,160.8 735,154.4 728.6,154.4 				"/>
				<polygon class="st1" points="715.8,160.8 709.4,160.8 709.4,167.2 703,167.2 703,160.8 696.6,160.8 696.6,167.2 696.6,173.6 
					696.6,180 703,180 703,173.6 709.4,173.6 709.4,180 715.8,180 715.8,173.6 722.2,173.6 722.2,167.2 715.8,167.2 				"/>
				<polygon class="st1" points="799,167.2 799,173.6 792.6,173.6 792.6,180 805.4,180 805.4,173.6 805.4,167.2 805.4,160.8 
					799,160.8 				"/>
				<polygon class="st1" points="773.4,167.2 773.4,173.6 773.4,180 786.2,180 786.2,173.6 786.2,167.2 786.2,160.8 779.8,160.8 
					779.8,167.2 				"/>
				<rect x="728.6" y="173.6" class="st1" width="6.4" height="6.4"/>
				<path class="st1" d="M690.2,58.4V52v-6.4v-6.4v-6.4v-6.4V20h-44.8v6.4v6.4v6.4v6.4V52v6.4v6.4h44.8V58.4z M651.8,58.4V52v-6.4
					v-6.4v-6.4v-6.4h32v6.4v6.4v6.4V52v6.4H651.8z"/>
				<rect x="658.2" y="32.8" class="st1" width="19.2" height="19.2"/>
				<path class="st1" d="M760.6,20v6.4v6.4v6.4v6.4V52v6.4v6.4h44.8v-6.4V52v-6.4v-6.4v-6.4v-6.4V20H760.6z M799,32.8v6.4v6.4V52
					v6.4h-32V52v-6.4v-6.4v-6.4v-6.4h32V32.8z"/>
				<rect x="773.4" y="32.8" class="st1" width="19.2" height="19.2"/>
				<path class="st1" d="M645.4,141.6v6.4v6.4v6.4v6.4v6.4v6.4h44.8v-6.4v-6.4v-6.4v-6.4V148v-6.4v-6.4h-44.8V141.6z M683.8,141.6
					v6.4v6.4v6.4v6.4v6.4h-32v-6.4v-6.4v-6.4V148v-6.4H683.8z"/>
				<rect x="658.2" y="148" class="st1" width="19.2" height="19.2"/>
			</g>
		</g>
	</g>
	<g>
		<path class="st0" d="M39.4,23.6c-3.1-1.6-6.8-2.3-11-2.3c-3.8,0-7.3,0.6-10.5,1.8c-3.2,1.2-5.9,3-8.2,5.2
			c-2.3,2.2-4.1,4.9-5.3,7.9c-1.3,3-1.9,6.4-1.9,10c0,3.6,0.8,6.8,2.5,9.5c1.7,2.7,4,4.9,7.1,6.4c3.1,1.6,6.8,2.3,11,2.3
			c3.8,0,7.3-0.6,10.5-1.8c3.2-1.2,5.9-3,8.2-5.2c2.3-2.2,4.1-4.9,5.3-7.9c1.3-3,1.9-6.4,1.9-10c0-3.6-0.8-6.8-2.5-9.5
			C44.8,27.3,42.5,25.2,39.4,23.6z M36.2,45.8c-0.6,1.7-1.5,3.3-2.6,4.7c-1.1,1.4-2.5,2.4-4.1,3.2c-1.6,0.8-3.4,1.1-5.5,1.1
			c-2.1,0-3.9-0.4-5.3-1.2c-1.4-0.8-2.6-1.9-3.3-3.3c-0.8-1.4-1.2-3-1.2-4.8c0-1.9,0.3-3.8,0.9-5.5c0.6-1.7,1.5-3.3,2.6-4.7
			c1.1-1.4,2.5-2.4,4.1-3.2c1.6-0.8,3.4-1.1,5.5-1.1c2.1,0,3.9,0.4,5.3,1.2c1.4,0.8,2.6,1.8,3.3,3.2c0.8,1.4,1.2,3,1.2,4.9
			C37.1,42.2,36.8,44,36.2,45.8z"/>
		<path class="st0" d="M89.3,25.6c-2.9-2.3-7-3.5-12.4-3.5H59.1l-8.3,41.5h11.8l2.2-11h5.9l6.2,11h12.3l-7.1-12.4
			c0.6-0.2,1.3-0.5,1.9-0.7c3.1-1.4,5.5-3.4,7.2-6c1.7-2.6,2.5-5.6,2.5-9.1C93.6,31.2,92.2,27.9,89.3,25.6z M80,32.6
			c1.1,0.8,1.7,2.1,1.7,3.9c0,2.3-0.7,4-2.1,5.2c-1.4,1.2-3.4,1.8-6.1,1.8h-7L69,31.4h6.2C77.3,31.4,78.9,31.8,80,32.6z"/>
		<path class="st0" d="M136.3,38.4c1.4-1.8,2.1-4,2.1-6.5c0-3.1-1.2-5.5-3.7-7.2c-2.5-1.7-6-2.5-10.7-2.5h-21l-8.3,41.5h22.8
			c3.6,0,6.8-0.5,9.7-1.4c2.9-0.9,5.1-2.4,6.8-4.3c1.7-1.9,2.5-4.4,2.5-7.4c0-3-1.1-5.3-3.4-7c-0.7-0.5-1.4-0.9-2.2-1.2
			C133.2,41.3,135,40,136.3,38.4z M121.3,30.6c1.5,0,2.7,0.3,3.6,0.8c0.9,0.5,1.3,1.3,1.3,2.5c0,1-0.2,1.9-0.7,2.6
			c-0.5,0.7-1.2,1.2-2.2,1.6c-1,0.4-2.1,0.5-3.5,0.5h-8.4l1.6-8H121.3z M123.1,53.9c-1.2,0.8-2.8,1.2-4.9,1.2H108l1.7-8.4h10.4
			c1.4,0,2.6,0.3,3.5,0.8c0.9,0.6,1.4,1.4,1.4,2.7C125,51.8,124.3,53.1,123.1,53.9z"/>
		<polygon class="st0" points="140.4,63.6 152.1,63.6 160.4,22.1 148.7,22.1 		"/>
		<polygon class="st0" points="163,31.4 175.8,31.4 169.3,63.6 181,63.6 187.5,31.4 200.2,31.4 202.1,22.1 164.9,22.1 		"/>
		<path class="st0" d="M228.2,23c-1.1-1.1-2.4-2-3.9-2.6c-1.5-0.6-3.1-0.9-4.8-0.9s-3.3,0.3-4.8,0.9c-1.5,0.6-2.8,1.5-3.9,2.6
			c-1.1,1.1-2,2.4-2.6,3.9c-0.6,1.5-0.9,3.1-0.9,4.8s0.3,3.3,0.9,4.8c0.6,1.5,1.5,2.8,2.6,3.9c1.1,1.1,2.4,2,3.9,2.6
			c1.5,0.6,3.1,0.9,4.8,0.9s3.3-0.3,4.8-0.9c1.5-0.6,2.8-1.5,3.9-2.6c1.1-1.1,2-2.4,2.6-3.9c0.6-1.5,0.9-3.1,0.9-4.8
			s-0.3-3.3-0.9-4.8C230.2,25.4,229.3,24.2,228.2,23z M228.2,35.5c-0.4,1.1-1,2-1.7,2.8l-2.8-4.3c0.3-0.1,0.5-0.3,0.7-0.4
			c1-0.8,1.6-2,1.6-3.6c0-1.5-0.5-2.6-1.6-3.5c-1-0.9-2.5-1.3-4.4-1.3h-6v13.2h4.3v-3.6h1.6l2.3,3.6h4.2c-0.1,0.1-0.1,0.1-0.2,0.2
			c-0.9,0.9-1.9,1.5-3,2c-1.2,0.5-2.4,0.7-3.8,0.7c-1.3,0-2.6-0.2-3.7-0.7s-2.1-1.2-3-2c-0.8-0.9-1.5-1.9-2-3.1
			c-0.5-1.2-0.7-2.4-0.7-3.8c0-1.4,0.2-2.6,0.7-3.8c0.5-1.2,1.1-2.2,2-3s1.9-1.6,3-2c1.2-0.5,2.4-0.7,3.8-0.7c1.4,0,2.6,0.2,3.8,0.7
			s2.1,1.1,3,2c0.8,0.9,1.5,1.9,1.9,3c0.5,1.2,0.7,2.4,0.7,3.8C228.9,33.1,228.7,34.3,228.2,35.5z M218.2,31.7v-3.5h1.5
			c0.6,0,1.1,0.2,1.5,0.4c0.4,0.3,0.5,0.7,0.5,1.3c0,0.6-0.2,1-0.5,1.3c-0.4,0.3-0.9,0.5-1.5,0.5H218.2z"/>
		<path class="st0" d="M255,62.2c3.1,1.5,6.8,2.3,11.1,2.3c3.7,0,7.1-0.6,10.1-1.8c3-1.2,5.7-3.2,8.1-6l-6.9-6.8
			c-1.5,1.7-3.1,2.9-4.8,3.7c-1.7,0.8-3.5,1.1-5.4,1.1c-2.1,0-3.9-0.4-5.4-1.2c-1.5-0.8-2.7-1.9-3.5-3.3c-0.8-1.4-1.2-3-1.2-4.9
			c0-2.1,0.3-4,0.9-5.7c0.6-1.8,1.5-3.3,2.7-4.6c1.2-1.3,2.6-2.3,4.2-3c1.6-0.7,3.5-1.1,5.5-1.1c2.1,0,3.9,0.4,5.4,1.2
			c1.5,0.8,2.8,2,3.7,3.6l8.5-6.8c-1.5-2.5-3.7-4.5-6.6-5.8c-3-1.3-6.4-2-10.2-2c-3.9,0-7.4,0.6-10.6,1.8c-3.2,1.2-5.9,3-8.2,5.2
			c-2.3,2.2-4.1,4.9-5.3,7.9c-1.3,3-1.9,6.4-1.9,10c0,3.6,0.9,6.8,2.6,9.5C249.4,58.5,251.8,60.6,255,62.2z"/>
		<path class="st0" d="M295.5,63.6l4.8-8.1H318l1.7,8.1h11.7l-10-41.5h-11.6l-26.6,41.5H295.5z M313.4,33.5l2.8,13.4h-10.8
			L313.4,33.5z"/>
		<polygon class="st0" points="343.2,63.6 354.8,63.6 361.1,31.4 374,31.4 375.8,22.1 338.8,22.1 337,31.4 349.5,31.4 		"/>
		<path class="st0" d="M392.7,63.6c4.2,0,7.8-0.7,10.9-2.1c3.1-1.4,5.5-3.4,7.2-5.9c1.7-2.5,2.6-5.5,2.6-8.9
			c0-7.6-4.6-11.4-13.8-11.4h-9.4l2.7-13.2h-11.6l-8.3,41.5H392.7z M388.5,43.7h7.6c1.8,0,3.2,0.3,4,1c0.9,0.7,1.3,1.8,1.3,3.3
			c0,1.4-0.3,2.6-1,3.7c-0.7,1.1-1.6,2-2.8,2.6c-1.2,0.6-2.5,0.9-4.1,0.9h-7.3L388.5,43.7z"/>
		<polygon class="st0" points="436,22.1 424.2,22.1 415.9,63.6 427.6,63.6 		"/>
		<polygon class="st0" points="454.2,31.4 470,31.4 463.7,63.6 475.2,63.6 483.5,22.1 444.6,22.1 436.3,63.6 447.9,63.6 		"/>
		<path class="st0" d="M514.5,55.6h17.7l1.7,8.1h11.7l-10-41.5H524l-26.6,41.5h12.4L514.5,55.6z M527.6,33.5l2.8,13.4h-10.8
			L527.6,33.5z"/>
		<path class="st0" d="M552.4,64.5c2.4,0,4.5-0.4,6.2-1.2s3.4-2.1,4.7-4c1.4-1.9,2.6-4.3,3.8-7.4c1.1-3,2.2-6.8,3.2-11.4l2.1-9.1
			h11.9l-6.4,32.2h11.6l8.3-41.5h-33.5l-3.9,16.6c-0.9,3.9-1.8,7-2.7,9.3c-0.9,2.3-1.9,3.9-2.9,4.9c-1,1-2.2,1.5-3.6,1.5
			c-0.6,0-1.1-0.1-1.5-0.2l-2.6,9.6c0.8,0.2,1.7,0.4,2.5,0.5S551.4,64.5,552.4,64.5z"/>
		<path class="st0" d="M274.4,111.4c-1.7,0.8-3.5,1.1-5.4,1.1c-2.1,0-3.9-0.4-5.4-1.2c-1.5-0.8-2.7-1.9-3.5-3.3
			c-0.8-1.4-1.2-3-1.2-4.9c0-2.1,0.3-4,0.9-5.7c0.6-1.8,1.5-3.3,2.7-4.6c1.2-1.3,2.6-2.3,4.2-3c1.6-0.7,3.5-1.1,5.5-1.1
			c2.1,0,3.9,0.4,5.4,1.2c1.5,0.8,2.8,2,3.7,3.6l8.5-6.8c-1.5-2.5-3.7-4.5-6.6-5.8c-3-1.3-6.4-2-10.2-2c-3.9,0-7.4,0.6-10.6,1.8
			c-3.2,1.2-5.9,3-8.2,5.2c-2.3,2.2-4.1,4.9-5.3,7.9c-1.3,3-1.9,6.4-1.9,10s0.9,6.8,2.6,9.5c1.7,2.8,4.1,4.9,7.3,6.4
			c3.1,1.5,6.8,2.3,11.1,2.3c3.7,0,7.1-0.6,10.1-1.8c3-1.2,5.7-3.2,8.1-6l-6.9-6.8C277.7,109.4,276.1,110.6,274.4,111.4z"/>
		<path class="st0" d="M304.7,105.5h5.9l6.3,15.9h11.3h1.1h11.3l4.8-8.1h17.7l1.7,8.1h11.7l-10-41.5h-11.6l-26,40.5l-8.4-20.1
			l17.3-20.4h-13.1L311.6,96h-5l3.2-16.1h-11.8l-8.3,41.5h11.8L304.7,105.5z M358.6,91.2l2.8,13.4h-10.8L358.6,91.2z"/>
		<polygon class="st0" points="420.8,121.4 429.1,79.9 417.3,79.9 414.2,95.5 398.2,95.5 401.4,79.9 389.6,79.9 381.3,121.4 
			393,121.4 396.3,105.2 412.2,105.2 409,121.4 		"/>
		<polygon class="st0" points="468.7,89 470.5,79.9 438,79.9 429.7,121.4 463,121.4 464.9,112.3 443.1,112.3 444.6,104.7 
			463.1,104.7 464.9,96 446.4,96 447.8,89 		"/>
		<path class="st0" d="M509.7,102.4c1.7-2.6,2.5-5.7,2.5-9.1c0-4.2-1.5-7.5-4.4-9.9c-2.9-2.3-7.1-3.5-12.5-3.5h-17.6l-8.3,41.5h11.8
			l2.2-10.9h8.3c4.2,0,7.8-0.7,10.9-2.1C505.7,107,508.1,105,509.7,102.4z M498.2,99.5c-1.4,1.2-3.4,1.8-6,1.8h-7l2.4-12.2h6.2
			c2.1,0,3.7,0.4,4.8,1.2c1.1,0.8,1.7,2.1,1.7,3.9C500.3,96.5,499.6,98.2,498.2,99.5z"/>
		<path class="st0" d="M549.4,121.4l8.3-41.5h-33.5l-3.9,16.6c-0.9,3.9-1.8,7-2.7,9.3c-0.9,2.3-1.9,3.9-2.9,4.9
			c-1,1-2.2,1.5-3.6,1.5c-0.6,0-1.1-0.1-1.5-0.2l-2.6,9.6c0.8,0.2,1.7,0.4,2.5,0.5c0.9,0.1,1.8,0.2,2.7,0.2c2.4,0,4.5-0.4,6.2-1.2
			s3.4-2.1,4.7-4c1.4-1.9,2.6-4.3,3.8-7.4c1.1-3,2.2-6.8,3.2-11.4l2.1-9.1h11.9l-6.4,32.2H549.4z"/>
		<polygon class="st0" points="597.4,89 599.2,79.9 566.7,79.9 558.4,121.4 591.7,121.4 593.6,112.3 571.8,112.3 573.3,104.7 
			591.8,104.7 593.5,96 575,96 576.4,89 		"/>
		<polygon class="st0" points="338.7,137.7 326.8,137.7 313.6,154.2 307,137.7 295.2,137.7 305.3,163 298.5,163 297.3,168.9 
			304.8,168.9 302.8,179.2 314.5,179.2 316.6,168.9 324.1,168.9 325.4,163 318.6,163 		"/>
		<polygon class="st0" points="374,147 375.8,137.7 338.8,137.7 337,147 349.5,147 343.2,179.2 354.8,179.2 361.1,147 		"/>
		<polygon class="st0" points="415.9,179.2 427.6,179.2 436,137.7 424.2,137.7 		"/>
		<path class="st0" d="M399.6,150.9h-9.4l2.7-13.2h-11.6l-8.3,41.5h19.8c4.2,0,7.8-0.7,10.9-2.1c3.1-1.4,5.5-3.4,7.2-5.9
			c1.7-2.5,2.6-5.5,2.6-8.9C413.4,154.7,408.8,150.9,399.6,150.9z M400.3,167.3c-0.7,1.1-1.6,2-2.8,2.6c-1.2,0.6-2.5,0.9-4.1,0.9
			h-7.3l2.3-11.5h7.6c1.8,0,3.2,0.3,4,1c0.9,0.7,1.3,1.8,1.3,3.3C401.4,165,401,166.2,400.3,167.3z"/>
		<polygon class="st0" points="436.3,179.2 447.9,179.2 454.2,147 470,147 463.7,179.2 475.2,179.2 483.5,137.7 444.6,137.7 		"/>
		<path class="st0" d="M524,137.7l-26.6,41.5h12.4l4.8-8.1h17.7l1.7,8.1h11.7l-10-41.5H524z M519.7,162.5l8-13.4l2.8,13.4H519.7z"/>
		<path class="st0" d="M560.4,154.2c-0.9,3.9-1.8,7-2.7,9.3c-0.9,2.3-1.9,3.9-2.9,4.9c-1,1-2.2,1.5-3.6,1.5c-0.6,0-1.1-0.1-1.5-0.2
			l-2.6,9.6c0.8,0.2,1.7,0.4,2.5,0.5c0.9,0.1,1.8,0.2,2.7,0.2c2.4,0,4.5-0.4,6.2-1.2s3.4-2.1,4.7-4c1.4-1.9,2.6-4.3,3.8-7.4
			c1.1-3,2.2-6.8,3.2-11.4l2.1-9.1h11.9l-6.4,32.2h11.6l8.3-41.5h-33.5L560.4,154.2z"/>
	</g>
</g>
</svg>
