<?xml version="1.0" encoding="utf-8"?>
<!-- Generator: Adobe Illustrator 25.2.3, SVG Export Plug-In . SVG Version: 6.00 Build 0)  -->
<svg version="1.1" id="Layer_1" xmlns="http://www.w3.org/2000/svg" xmlns:xlink="http://www.w3.org/1999/xlink" x="0px" y="0px"
	 viewBox="0 0 242.5 67.9" style="enable-background:new 0 0 242.5 67.9;" xml:space="preserve">
<style type="text/css">
	.st0{fill:#01016E;}
</style>
<g>
	<path class="st0" d="M1.9,32.3C1.2,32.2,0.6,32.1,0,32c0.7-1.4,1.2-2.9,1.4-4.4l0.2-1.1l0.1-1.1c0.1-0.8,0.3-1.6,0.5-2.2
		c0.5-1.6,1.7-2.4,3.5-2.4c0.4,0,0.9,0,1.3,0.1C7.3,21,7.7,21,8.2,21.1c1,0.2,1.6,0.3,1.8,0.3c0.6,0,0.9-0.2,1-0.5s-0.2-0.5-0.8-0.7
		c-3.1-1.1-5-1.9-5.7-2.4c-0.9-0.7-1.1-1.7-0.7-3.1c0.6-2.2,2.8-3.9,6.5-5c0.8,1.8,1.8,3.6,2.8,5.2c0.9,1.5,1.7,2.5,2.2,3
		c0.3,0.3,0.6,0.4,0.8,0.4c0.3,0,0.5-0.1,0.6-0.4s-0.3-1-1.1-2.2c-0.4-0.6-0.7-1.1-0.9-1.5c-0.3-0.6-0.3-1.2-0.3-1.7
		c0.2-1,0.8-1.8,1.9-2.2c1-0.3,2.6-0.5,4.9-0.5s3.9,0.2,4.7,0.5c1,0.4,1.4,1.2,1.2,2.2c-0.1,0.5-0.3,1.1-0.8,1.7
		c-0.3,0.4-0.7,0.9-1.3,1.5c-1.2,1.2-1.8,2-1.8,2.2c0,0.3,0.2,0.4,0.5,0.4c0.2,0,0.5-0.1,0.9-0.4c0.7-0.5,1.7-1.5,3.1-3
		c1.5-1.6,3-3.4,4.4-5.2c3.3,1.1,5,2.8,5,5c0,1.4-0.5,2.4-1.6,3.1c-0.8,0.5-2.9,1.3-6.1,2.3c-0.7,0.2-1,0.4-1,0.7
		c0,0.4,0.3,0.5,0.8,0.5c0.3,0,0.9-0.1,1.8-0.3c0.9-0.2,1.7-0.3,2.4-0.3c1.8,0,2.7,0.8,2.7,2.4c0,0.5-0.2,1.5-0.5,2.9
		c-0.1,0.7-0.3,1.2-0.3,1.6c-0.1,0.6-0.1,1.2-0.1,1.8c0,0.8,0.2,1.7,0.5,2.4c-0.6,0.1-1.3,0.2-2,0.3c-0.9,0.1-1.8,0.1-2.6,0.1
		c-2.1,0-3.5-0.4-4.5-1.1c-0.9-0.7-1.4-1.9-1.4-3.5c0-1.3,0.2-2.4,0.6-3.3L26,24l0.2-0.3c0.1-0.3,0.2-0.4,0.2-0.6
		c0-0.1,0-0.2-0.1-0.3c-0.1-0.1-0.3-0.2-0.5-0.2c-0.6,0-1.1,0.4-1.6,1.2c-0.6,1-0.9,2.4-0.9,4.1s0.2,3,0.6,4.1
		c-1.8,0.3-3.8,0.4-5.9,0.4c-2.3,0-4.3-0.1-6.1-0.4c0.9-1.4,1.6-3.1,2.2-4.9c0.5-1.8,0.8-3,0.8-3.7c0-0.5-0.2-0.7-0.6-0.7
		c-0.3,0-0.6,0.3-0.9,0.8c-0.1,0.2-0.2,0.5-0.3,0.8L12.7,25c-1.2,3.4-2,5.3-2.4,5.9c-0.9,1-2.9,1.6-5.8,1.6
		C3.7,32.4,2.8,32.4,1.9,32.3z"/>
	<path class="st0" d="M41.6,41.9c-1-0.2-1.8-0.5-2.3-0.9c-0.9-0.6-1.4-1.2-1.6-1.9c-0.3-0.7-0.3-1.9,0-3.4c0.1-0.8,0.3-1.5,0.5-2.1
		c0.1-0.5,0.3-0.9,0.6-1.4c1.7,1.4,3.9,2.2,6.4,2.2c2,0,3.6-0.5,4.8-1.6c1-0.9,1.5-2.1,1.5-3.4c0-0.3-0.1-0.5-0.4-0.5
		c-0.2,0-0.4,0.1-0.5,0.4c-0.9,2-2.8,3-5.6,3c-4.5,0-6.7-1.7-6.7-5.1c0-1.4,0.4-3.6,1.2-6.8c0.8-3.1,1.2-5.6,1.2-7.3
		c0-1.1-0.1-2-0.4-2.8c0.6-0.1,1.3-0.2,2-0.3c0.8,0,1.7,0,2.5,0c4,0,6,1.8,6,5.3c0,4-1.3,7.3-3.8,9.9c-0.5,0.5-0.7,0.8-0.7,1
		c0,0.3,0.2,0.5,0.6,0.5c1,0,2.2-1,3.4-3.1c1.4-2.4,2.2-5.3,2.2-8.5c0-1.8-0.2-3.4-0.5-4.6c1.5-0.3,3.1-0.5,4.7-0.5
		c3.6,0,5.4,1.1,5.4,3.2c0,0.4,0,0.8-0.1,1.3L59.3,32c-0.6,3.6-2.2,6.3-4.9,8.1c-2.3,1.5-5.2,2.3-8.7,2.3
		C44.2,42.3,42.8,42.1,41.6,41.9z"/>
	<path class="st0" d="M62.8,27.3c0-1.4,0.4-3.6,1.2-6.8c0.8-3.1,1.2-5.6,1.2-7.3c0-1.1-0.1-2-0.4-2.8c0.6-0.1,1.2-0.2,2-0.3
		c0.9-0.1,1.7-0.1,2.6-0.1c2.1,0,3.6,0.4,4.6,1.3c1,0.8,1.4,2.2,1.4,4.1c0,3.8-1.4,7.1-4.3,9.9c-0.4,0.4-0.6,0.8-0.6,1
		c0,0.3,0.2,0.5,0.7,0.5c0.3,0,0.7-0.3,1.4-0.8c0.7-0.6,1.4-1.4,2-2.3c1.7-2.5,2.6-5.4,2.6-8.5c0-1.7-0.2-3.3-0.5-4.6
		c1.4-0.3,3-0.5,4.8-0.5c2,0,3.3,0.2,4.1,0.7c0.9,0.6,1.4,1.6,1.4,3.2c0,1.2-0.2,2.6-0.5,4.3c-0.1,0.6-0.3,1.4-0.5,2.3L85.5,23
		c-1,4-1.3,7-1,9c-1.2,0.3-2.8,0.4-4.8,0.4c-2.4,0-3.3-0.8-2.8-2.4c0.1-0.3,0.2-0.6,0.4-1.1l0.5-1.1c0.4-0.9,0.7-1.6,0.7-2.1
		c0-0.4-0.2-0.6-0.5-0.6s-0.6,0.2-0.8,0.6c-0.4,0.9-0.8,1.6-1.1,2.2c-0.5,0.8-1.1,1.5-1.7,2.1c-1.6,1.5-3.7,2.2-6.2,2.2
		C64.6,32.4,62.8,30.7,62.8,27.3z M69.6,2.7c0.1-0.7,0.1-1.2,0.1-1.4c0-0.3,0-0.6-0.1-0.9C70.4,0.1,71.5,0,73,0
		c2.4,0,3.6,0.9,3.6,2.8c0,0.6-0.2,1.1-0.5,1.6c-0.4,0.5-0.6,0.9-0.6,1c0,0.3,0.2,0.5,0.6,0.5s0.8-0.4,1.1-1.3
		c0.4-0.9,0.6-1.8,0.6-2.9c0-0.5,0-1-0.1-1.4C78.9,0.1,80,0,81.3,0c2.1,0,3.2,1,3.2,2.9c0,1.6-0.6,3-1.8,4.1
		c-1.4,1.4-3.5,2.1-6.3,2.1c-0.9,0-1.6,0-2.2-0.1c-0.9-0.1-1.7-0.3-2.3-0.6c-1.7-0.8-2.5-2.2-2.5-4.2C69.4,3.8,69.5,3.3,69.6,2.7z"
		/>
	<g>
		<path class="st0" d="M13.1,64c0-0.4,0-0.8,0.1-1.3l2.6-16.9c0.7-0.1,1.6-0.3,2.7-0.3c1.4-0.1,2.8-0.2,4.2-0.2
			c4.3,0,7.4,0.5,9.4,1.4c2.1,1,3.1,2.6,2.7,4.9c-0.4,2.5-1.8,4-4.3,4.4c-0.4,0.1-0.6,0.3-0.6,0.6c0,0.3,0.2,0.5,0.6,0.6
			c2.1,0.6,3.2,1.8,3.2,3.7c0,2.3-1.1,4.1-3.4,5.2c-2,1-4.7,1.5-8.1,1.5C16.1,67.7,13.1,66.4,13.1,64z M23,63.3
			c0.4,0,0.7-0.2,0.8-0.6l0.6-3.8c0.1-0.6-0.2-0.8-0.7-0.8s-0.7,0.2-0.8,0.6l-0.6,3.8C22.2,63,22.4,63.3,23,63.3z M24.4,54.3
			c0.4,0,0.7-0.2,0.8-0.7l0.1-0.6c0.2-1.4,0.5-2.2,0.8-2.7c0.2-0.2,0.2-0.4,0.2-0.7c-0.1-0.3-0.2-0.4-0.5-0.5
			c-0.3-0.1-0.6,0-0.8,0.3c-0.3,0.4-0.6,0.9-0.8,1.6c-0.1,0.5-0.3,1.1-0.4,1.9l-0.1,0.6C23.6,54,23.8,54.3,24.4,54.3z"/>
		<path class="st0" d="M57.8,62.4c0-1.2,0.3-2.3,0.8-3.4c0.5-1.1,0.7-1.8,0.7-2c0-0.3-0.2-0.5-0.6-0.5c-0.6,0-1.2,0.5-1.6,1.5
			c-0.6,1.2-0.9,2.7-0.9,4.6c0,1.8,0.2,3.4,0.5,4.6c-1.4,0.3-2.9,0.5-4.5,0.5c-1.9,0-3.3-0.3-4.2-0.8c-0.8-0.5-1.3-1.3-1.3-2.4
			c0-0.4,0-0.8,0.1-1.3l2.7-17.5c1.7-0.3,3.6-0.4,5.7-0.4c4.7,0,7.6,0.8,8.6,2.4c0.4,0.7,0.7,1.6,0.6,2.7c0,0.7-0.2,1.6-0.4,2.7
			l-0.2,0.6l-0.1,0.6c-0.1,0.4-0.2,0.7-0.2,0.9c-0.1,0.6,0.1,0.9,0.5,0.9c0.4,0,0.8-0.3,1.1-0.9c0.2-0.3,0.4-1.1,0.7-2.3
			c0.1-0.6,0.3-1,0.4-1.4c0.1-0.5,0.3-1,0.5-1.4c0.4-1.1,1-2,1.7-2.7c1.5-1.6,4.2-2.3,8.2-2.1c2,0.1,3.4,0.5,4.1,1.2
			c0.7,0.6,1.1,1.6,1.1,3c0,1.5-0.4,3.9-1.3,7.3c-0.4,1.7-0.7,2.9-0.9,3.8c-0.3,1.4-0.4,2.7-0.4,3.8s0.2,2,0.5,2.8
			c-1.4,0.3-2.9,0.4-4.4,0.4c-4,0-6-1.8-6-5.3c0-1.2,0.3-2.3,0.8-3.4l0.3-0.6l0.2-0.5c0.2-0.4,0.3-0.7,0.3-0.9
			c0-0.3-0.2-0.5-0.7-0.5c-0.6,0-1.1,0.5-1.6,1.5c-0.6,1.2-0.9,2.7-0.9,4.5c0,1.7,0.2,3.3,0.5,4.7c-0.6,0.1-1.3,0.2-1.8,0.3
			c-0.8,0.1-1.6,0.2-2.4,0.2C59.8,67.7,57.8,65.9,57.8,62.4z"/>
		<path class="st0" d="M85.8,65.5c-1.9-1.7-2.8-4-2.8-7c0-3.9,1-7,2.9-9.4c2.2-2.7,5.5-4,10-4c3.1,0,5.6,0.8,7.3,2.4
			c1.9,1.7,2.8,4,2.8,7c0,3.9-1,7-2.9,9.3c-2.2,2.7-5.5,4.1-10,4.1C90.1,67.9,87.6,67.1,85.8,65.5z M93.2,61.7
			c0.3,0,0.5-0.2,0.6-0.7c0-0.1,0-0.4,0-0.8v-0.5v-0.6c0.1-1.1,0.3-2.1,0.5-3c0.5-1.5,1.2-2.7,2.2-3.6c0.4-0.4,0.7-0.8,0.7-1
			c0-0.3-0.2-0.5-0.6-0.5c-1,0-2,0.9-3,2.6c-1,1.8-1.5,3.8-1.5,5.9C92.2,60.9,92.6,61.7,93.2,61.7z"/>
		<path class="st0" d="M118.4,62.4c0-1.2,0.3-2.3,0.8-3.4c0.5-1.1,0.7-1.8,0.7-2c0-0.3-0.2-0.5-0.6-0.5c-0.6,0-1.2,0.5-1.6,1.5
			c-0.6,1.2-0.9,2.7-0.9,4.6c0,1.8,0.2,3.4,0.5,4.6c-1.4,0.3-2.9,0.5-4.5,0.5c-1.9,0-3.3-0.3-4.2-0.8c-0.8-0.5-1.3-1.3-1.3-2.4
			c0-0.4,0-0.8,0.1-1.3l2.7-17.5c1.7-0.3,3.6-0.4,5.7-0.4c4.7,0,7.6,0.8,8.6,2.4c0.5,0.7,0.7,1.6,0.6,2.7c0,0.7-0.2,1.6-0.4,2.7
			l-0.2,0.6l-0.1,0.6c-0.1,0.4-0.2,0.7-0.2,0.9c-0.1,0.6,0.1,0.9,0.5,0.9c0.5,0,0.8-0.3,1.1-0.9c0.2-0.3,0.4-1.1,0.7-2.3
			c0.1-0.6,0.3-1,0.4-1.4c0.1-0.5,0.3-1,0.5-1.4c0.4-1.1,1-2,1.7-2.7c1.5-1.6,4.2-2.3,8.2-2.1c2,0.1,3.4,0.5,4.1,1.2
			c0.7,0.6,1.1,1.6,1.1,3c0,1.5-0.4,3.9-1.3,7.3c-0.4,1.7-0.7,2.9-0.9,3.8c-0.3,1.4-0.4,2.7-0.4,3.8s0.2,2,0.5,2.8
			c-1.4,0.3-2.9,0.4-4.4,0.4c-4,0-6-1.8-6-5.3c0-1.2,0.3-2.3,0.8-3.4l0.3-0.6l0.2-0.5c0.2-0.4,0.3-0.7,0.3-0.9
			c0-0.3-0.2-0.5-0.7-0.5c-0.6,0-1.1,0.5-1.6,1.5c-0.6,1.2-0.9,2.7-0.9,4.5c0,1.7,0.2,3.3,0.5,4.7c-0.6,0.1-1.3,0.2-1.8,0.3
			c-0.8,0.1-1.6,0.2-2.4,0.2C120.4,67.7,118.4,65.9,118.4,62.4z"/>
		<path class="st0" d="M146.7,65.7c-2.1-1.5-3.1-3.8-3.1-6.7c0-4.3,1.2-7.7,3.5-10.2c2.3-2.5,5.6-3.7,9.8-3.7c3,0,5.3,0.6,6.9,1.8
			c1.4,1.1,2.1,2.6,2.1,4.4c0,2.4-0.9,4.4-2.8,5.8c-1.7,1.3-3.8,2-6.4,2c-1.1,0-2-0.1-2.7-0.3l-0.4-0.1l-0.3-0.1
			c-0.2-0.1-0.4-0.1-0.6-0.1c-0.4,0-0.6,0.2-0.6,0.6c0,0.5,0.4,0.9,1.2,1.2s1.9,0.5,3.2,0.5c1.7,0,3.4-0.3,4.9-1
			c0.6-0.2,1.2-0.5,1.8-0.9c0.4-0.3,0.9-0.5,1.4-0.9c-0.1,1.6-0.3,2.9-0.5,3.9c-0.3,1.4-0.5,2.3-0.8,2.9c-0.3,0.6-0.9,1.1-1.7,1.6
			c-0.8,0.4-1.7,0.7-2.7,1c-1.4,0.3-2.9,0.5-4.5,0.5C151.2,67.9,148.6,67.1,146.7,65.7z M154.6,56c0.3,0,0.6-0.2,0.8-0.7l0.1-0.4
			l0.1-0.4c0.1-0.4,0.2-0.7,0.3-0.9c0.1-0.3,0.3-0.5,0.5-0.8l0.2-0.3l0.2-0.3c0.3-0.4,0.5-0.7,0.5-0.9c0-0.1,0-0.3-0.1-0.4
			c-0.1-0.1-0.3-0.2-0.5-0.2c-0.7,0-1.4,0.5-2,1.4c-0.6,0.9-0.8,1.8-0.8,2.8C153.8,55.6,154.1,56,154.6,56z"/>
		<path class="st0" d="M167.9,66.9c-0.8-0.5-1.3-1.3-1.3-2.4c0-0.4,0-0.8,0.1-1.3l2.7-17.5c1.4-0.3,2.8-0.4,4.2-0.4
			c3.7,0,5.5,1,5.5,3.1c0,1-0.1,2-0.4,2.8c-0.4,1.2-1,2-1.8,2.6c-0.4,0.3-0.5,0.5-0.5,0.8s0.1,0.5,0.4,0.6c0.2,0.1,0.5,0.1,0.8,0
			c1.4-0.5,2.3-1.9,2.9-4.1c0.2-0.8,0.4-1.6,0.4-2.4c0.1-1,0.1-2.1-0.1-3c1.6-0.3,3.1-0.4,4.7-0.4c1.9,0,3.3,0.2,4.2,0.7
			c0.8,0.5,1.3,1.3,1.3,2.4c0,0.4,0,0.8-0.1,1.3l-2.7,17.5c-1.4,0.3-2.9,0.4-4.3,0.4c-3.7,0-5.5-1-5.5-3.1c0-1,0.1-2,0.4-2.8
			c0.4-1.2,1-2,1.8-2.6c0.4-0.3,0.5-0.5,0.5-0.8s-0.1-0.5-0.4-0.6c-0.2-0.1-0.5-0.1-0.8,0c-1.3,0.5-2.3,1.8-2.9,4
			c-0.2,0.8-0.4,1.6-0.4,2.4c-0.1,1-0.1,2.1,0.1,3c-1.6,0.3-3.2,0.4-4.7,0.4C170.1,67.7,168.7,67.4,167.9,66.9z"/>
		<path class="st0" d="M200.6,66.9c-0.8-0.4-1.2-1.2-1.2-2.4v-0.3c0-0.2,0-0.4,0-0.6c0.1-0.7,0.2-1.5,0.3-2.4c0.3-2.7,0.8-5.7,1.4-9
			c0.1-0.5-0.1-0.8-0.5-0.8c-0.5,0-0.8,0.4-0.9,1.2v0.3v0.4c-0.1,0.3-0.1,0.5-0.2,0.8c-0.2,0.6-0.5,1.1-0.8,1.4
			c-1.1,1-3.2,1.3-6.3,0.8c0.5-3.8,0.9-6.2,1.1-7.3c0.3-1.2,0.7-2.1,1.2-2.6c1-0.8,4.2-1.2,9.7-1.2h5.2c5.5,0,8.5,0.4,9.2,1.2
			c0.4,0.5,0.6,1.4,0.6,2.7c-0.1,1.5-0.5,3.9-1.2,7.3c-4.5,0.5-6.8-0.1-6.8-1.8c0-0.3,0.1-0.8,0.3-1.4c0.2-0.6,0.3-1,0.3-1.2
			c0-0.4-0.2-0.7-0.5-0.7s-0.6,0.3-0.8,0.8c-0.4,1-0.8,2.4-1.1,4c-0.3,2-0.5,4.1-0.5,6.3c0,1.7,0.2,3.3,0.5,4.6
			c-1.4,0.3-3,0.5-4.8,0.5C202.8,67.7,201.4,67.4,200.6,66.9z"/>
		<path class="st0" d="M223.3,65.7c-2.1-1.5-3.1-3.8-3.1-6.7c0-4.3,1.2-7.7,3.5-10.2c2.3-2.5,5.6-3.7,9.8-3.7c3,0,5.3,0.6,6.9,1.8
			c1.4,1.1,2.1,2.6,2.1,4.4c0,2.4-0.9,4.4-2.8,5.8c-1.7,1.3-3.8,2-6.4,2c-1.1,0-2-0.1-2.7-0.3l-0.4-0.1l-0.3-0.1
			c-0.2-0.1-0.4-0.1-0.6-0.1c-0.4,0-0.6,0.2-0.6,0.6c0,0.5,0.4,0.9,1.2,1.2c0.8,0.3,1.9,0.5,3.2,0.5c1.7,0,3.4-0.3,4.9-1
			c0.6-0.2,1.2-0.5,1.8-0.9c0.4-0.3,0.9-0.5,1.4-0.9c-0.1,1.6-0.3,2.9-0.5,3.9c-0.3,1.4-0.5,2.3-0.8,2.9c-0.3,0.6-0.9,1.1-1.7,1.6
			c-0.8,0.4-1.7,0.7-2.7,1c-1.4,0.3-2.9,0.5-4.5,0.5C227.8,67.9,225.2,67.1,223.3,65.7z M231.2,56c0.3,0,0.6-0.2,0.8-0.7l0.1-0.4
			l0.1-0.4c0.1-0.4,0.2-0.7,0.3-0.9c0.1-0.3,0.3-0.5,0.5-0.8l0.2-0.3l0.2-0.3c0.3-0.4,0.5-0.7,0.5-0.9c0-0.1,0-0.3-0.1-0.4
			c-0.1-0.1-0.3-0.2-0.5-0.2c-0.7,0-1.4,0.5-2,1.4c-0.6,0.9-0.8,1.8-0.8,2.8C230.5,55.6,230.7,56,231.2,56z"/>
	</g>
</g>
</svg>
