<?xml version="1.0" encoding="utf-8"?>
<!-- Generator: Adobe Illustrator 25.2.3, SVG Export Plug-In . SVG Version: 6.00 Build 0)  -->
<svg version="1.1" id="Layer_1" xmlns="http://www.w3.org/2000/svg" xmlns:xlink="http://www.w3.org/1999/xlink" x="0px" y="0px"
	 viewBox="0 0 696.3 200" style="enable-background:new 0 0 696.3 200;" xml:space="preserve">
<style type="text/css">
	.st0{fill:#FFFFFF;}
	.st1{fill:#282781;}
</style>
<g>
	<g>
		<rect class="st0" width="200" height="200"/>
		<g>
			<rect x="84" y="20" class="st1" width="6.4" height="6.4"/>
			<rect x="116" y="20" class="st1" width="6.4" height="6.4"/>
			<rect x="77.6" y="26.4" class="st1" width="6.4" height="6.4"/>
			<rect x="71.2" y="32.8" class="st1" width="6.4" height="6.4"/>
			<rect x="90.4" y="32.8" class="st1" width="6.4" height="6.4"/>
			<polygon class="st1" points="84,39.2 77.6,39.2 77.6,45.6 77.6,52 84,52 84,45.6 			"/>
			<polygon class="st1" points="128.8,39.2 128.8,32.8 116,32.8 116,26.4 109.6,26.4 109.6,32.8 109.6,39.2 116,39.2 116,45.6 
				128.8,45.6 			"/>
			<polygon class="st1" points="96.8,58.4 96.8,64.8 103.2,64.8 103.2,58.4 103.2,52 103.2,45.6 103.2,39.2 96.8,39.2 96.8,45.6 
				96.8,52 84,52 84,58.4 84,64.8 90.4,64.8 90.4,58.4 			"/>
			<polygon class="st1" points="116,52 116,45.6 109.6,45.6 109.6,52 109.6,58.4 109.6,64.8 116,64.8 116,58.4 122.4,58.4 122.4,52 
							"/>
			<rect x="90.4" y="64.8" class="st1" width="6.4" height="6.4"/>
			<polygon class="st1" points="103.2,71.2 96.8,71.2 96.8,77.6 90.4,77.6 90.4,84 84,84 84,90.4 77.6,90.4 77.6,96.8 84,96.8 
				84,103.2 84,109.6 96.8,109.6 96.8,103.2 96.8,96.8 90.4,96.8 90.4,90.4 96.8,90.4 96.8,96.8 103.2,96.8 103.2,90.4 109.6,90.4 
				109.6,84 109.6,77.6 109.6,71.2 109.6,64.8 103.2,64.8 			"/>
			<rect x="160.8" y="71.2" class="st1" width="6.4" height="6.4"/>
			<rect x="77.6" y="77.6" class="st1" width="6.4" height="6.4"/>
			<rect x="148" y="77.6" class="st1" width="6.4" height="6.4"/>
			<rect x="167.2" y="77.6" class="st1" width="6.4" height="6.4"/>
			<rect x="71.2" y="84" class="st1" width="6.4" height="6.4"/>
			<rect x="154.4" y="84" class="st1" width="6.4" height="6.4"/>
			<polygon class="st1" points="64.8,96.8 58.4,96.8 58.4,103.2 71.2,103.2 71.2,96.8 71.2,90.4 64.8,90.4 			"/>
			<polygon class="st1" points="167.2,96.8 160.8,96.8 160.8,103.2 167.2,103.2 167.2,109.6 167.2,116 180,116 180,109.6 180,103.2 
				180,96.8 180,90.4 167.2,90.4 			"/>
			<rect x="20" y="96.8" class="st1" width="6.4" height="6.4"/>
			<polygon class="st1" points="45.6,109.6 52,109.6 52,116 71.2,116 71.2,109.6 58.4,109.6 58.4,103.2 45.6,103.2 			"/>
			<rect x="148" y="103.2" class="st1" width="6.4" height="6.4"/>
			<rect x="20" y="109.6" class="st1" width="6.4" height="6.4"/>
			<polygon class="st1" points="39.2,109.6 39.2,103.2 39.2,96.8 58.4,96.8 58.4,90.4 64.8,90.4 64.8,84 58.4,84 58.4,77.6 
				77.6,77.6 77.6,71.2 77.6,64.8 77.6,58.4 71.2,58.4 71.2,64.8 71.2,71.2 45.6,71.2 45.6,77.6 52,77.6 52,84 45.6,84 45.6,77.6 
				39.2,77.6 39.2,71.2 20,71.2 20,77.6 26.4,77.6 26.4,84 20,84 20,90.4 32.8,90.4 32.8,96.8 32.8,103.2 32.8,109.6 32.8,116 
				39.2,116 			"/>
			<rect x="77.6" y="109.6" class="st1" width="6.4" height="6.4"/>
			<rect x="154.4" y="109.6" class="st1" width="6.4" height="6.4"/>
			<rect x="26.4" y="116" class="st1" width="6.4" height="6.4"/>
			<rect x="39.2" y="116" class="st1" width="12.8" height="6.4"/>
			<rect x="90.4" y="116" class="st1" width="6.4" height="6.4"/>
			<polygon class="st1" points="116,116 109.6,116 109.6,109.6 116,109.6 116,103.2 103.2,103.2 103.2,109.6 103.2,116 103.2,122.4 
				116,122.4 			"/>
			<rect x="20" y="122.4" class="st1" width="6.4" height="6.4"/>
			<rect x="32.8" y="122.4" class="st1" width="6.4" height="6.4"/>
			<rect x="160.8" y="122.4" class="st1" width="6.4" height="6.4"/>
			<rect x="173.6" y="122.4" class="st1" width="6.4" height="6.4"/>
			<polygon class="st1" points="90.4,128.8 90.4,135.2 84,135.2 84,141.6 96.8,141.6 96.8,148 84,148 84,154.4 90.4,154.4 
				90.4,160.8 96.8,160.8 96.8,154.4 103.2,154.4 103.2,148 103.2,141.6 109.6,141.6 109.6,135.2 116,135.2 116,128.8 103.2,128.8 
				103.2,122.4 96.8,122.4 96.8,128.8 			"/>
			<polygon class="st1" points="167.2,135.2 167.2,141.6 167.2,148 180,148 180,141.6 180,135.2 173.6,135.2 173.6,128.8 
				167.2,128.8 			"/>
			<rect x="135.2" y="135.2" class="st1" width="6.4" height="6.4"/>
			<path class="st1" d="M160.8,135.2h-6.4v-6.4v-6.4H148V116h-6.4v-6.4h-12.8v-6.4v-6.4v-6.4h6.4v6.4v6.4H148v-6.4v-6.4h-6.4V84
				v-6.4v-6.4h-12.8v-6.4v-6.4h-6.4v6.4v6.4v6.4H116V84h6.4v6.4v6.4v6.4v6.4H116v6.4h19.2v6.4h-12.8v6.4v6.4H116v6.4h6.4v6.4H116
				v-6.4h-6.4v6.4v6.4h6.4v6.4v6.4h6.4v6.4v6.4h6.4v-6.4v-6.4v-6.4h6.4v-6.4h6.4v6.4h12.8v-6.4V148h6.4v-6.4V135.2z M128.8,77.6h6.4
				V84h-6.4V77.6z M148,148h-19.2v-6.4v-6.4v-6.4H148v6.4v6.4V148z"/>
			<polygon class="st1" points="84,148 84,141.6 77.6,141.6 77.6,135.2 77.6,128.8 90.4,128.8 90.4,122.4 58.4,122.4 58.4,128.8 
				71.2,128.8 71.2,135.2 71.2,141.6 71.2,148 71.2,154.4 77.6,154.4 77.6,148 			"/>
			<rect x="160.8" y="148" class="st1" width="6.4" height="6.4"/>
			<rect x="77.6" y="154.4" class="st1" width="6.4" height="6.4"/>
			<polygon class="st1" points="103.2,160.8 96.8,160.8 96.8,167.2 109.6,167.2 109.6,160.8 109.6,154.4 103.2,154.4 			"/>
			<polygon class="st1" points="90.4,160.8 84,160.8 84,167.2 77.6,167.2 77.6,160.8 71.2,160.8 71.2,167.2 71.2,173.6 71.2,180 
				77.6,180 77.6,173.6 84,173.6 84,180 90.4,180 90.4,173.6 96.8,173.6 96.8,167.2 90.4,167.2 			"/>
			<polygon class="st1" points="173.6,167.2 173.6,173.6 167.2,173.6 167.2,180 180,180 180,173.6 180,167.2 180,160.8 173.6,160.8 
							"/>
			<polygon class="st1" points="148,167.2 148,173.6 148,180 160.8,180 160.8,173.6 160.8,167.2 160.8,160.8 154.4,160.8 
				154.4,167.2 			"/>
			<rect x="103.2" y="173.6" class="st1" width="6.4" height="6.4"/>
			<path class="st1" d="M64.8,58.4V52v-6.4v-6.4v-6.4v-6.4V20H20v6.4v6.4v6.4v6.4V52v6.4v6.4h44.8V58.4z M26.4,58.4V52v-6.4v-6.4
				v-6.4v-6.4h32v6.4v6.4v6.4V52v6.4H26.4z"/>
			<rect x="32.8" y="32.8" class="st1" width="19.2" height="19.2"/>
			<path class="st1" d="M135.2,20v6.4v6.4v6.4v6.4V52v6.4v6.4H180v-6.4V52v-6.4v-6.4v-6.4v-6.4V20H135.2z M173.6,32.8v6.4v6.4V52
				v6.4h-32V52v-6.4v-6.4v-6.4v-6.4h32V32.8z"/>
			<rect x="148" y="32.8" class="st1" width="19.2" height="19.2"/>
			<path class="st1" d="M20,141.6v6.4v6.4v6.4v6.4v6.4v6.4h44.8v-6.4v-6.4v-6.4v-6.4V148v-6.4v-6.4H20V141.6z M58.4,141.6v6.4v6.4
				v6.4v6.4v6.4h-32v-6.4v-6.4v-6.4V148v-6.4H58.4z"/>
			<rect x="32.8" y="148" class="st1" width="19.2" height="19.2"/>
		</g>
	</g>
	<g>
		<polygon class="st0" points="259,46.5 265.1,46.5 271.5,62.8 284.2,62.8 275.2,41.2 292.8,20.3 279.5,20.3 266.1,36.8 260.9,36.8 
			264.2,20.3 252.2,20.3 243.7,62.8 255.7,62.8 		"/>
		<path class="st0" d="M300.6,53c-1.1,0.6-2.2,0.9-3.4,0.9c-1.2,0-2.6-0.2-4.1-0.6l-3.9,8.6c3,1.3,5.9,1.9,8.8,1.7
			c2.9-0.1,5.7-1.1,8.4-2.7c2.7-1.7,5.3-4.1,7.6-7.4l24.2-33.2h-12l-14.3,20.3l-5.8-20.3h-12.4l10.3,29.9l-0.3,0.3
			C302.7,51.6,301.6,52.5,300.6,53z"/>
		<polygon class="st0" points="345.4,62.8 351.9,29.8 368,29.8 361.6,62.8 373.4,62.8 381.9,20.3 342.1,20.3 333.6,62.8 		"/>
		<polygon class="st0" points="416.6,37.9 411.4,62.8 423.2,62.8 431.7,20.3 420.3,20.3 397.8,45.3 402.9,20.3 391.1,20.3 
			382.6,62.8 394,62.8 		"/>
		<path class="st0" d="M461.3,61.2c3.2,1.6,6.9,2.4,11.3,2.4c3.9,0,7.5-0.6,10.7-1.9c3.3-1.3,6.1-3,8.4-5.3c2.3-2.3,4.2-5,5.5-8.1
			c1.3-3.1,1.9-6.5,1.9-10.2c0-3.7-0.8-6.9-2.5-9.7s-4.1-5-7.3-6.6c-3.2-1.6-6.9-2.4-11.3-2.4c-3.9,0-7.5,0.6-10.7,1.9
			c-3.3,1.3-6.1,3-8.4,5.3c-2.3,2.3-4.2,5-5.5,8.1c-1.3,3.1-1.9,6.5-1.9,10.2c0,3.7,0.8,6.9,2.5,9.7S458.2,59.6,461.3,61.2z
			 M464.6,38.6c0.6-1.8,1.5-3.4,2.6-4.8c1.2-1.4,2.6-2.5,4.2-3.2c1.7-0.8,3.5-1.2,5.6-1.2c2.1,0,4,0.4,5.4,1.2
			c1.5,0.8,2.6,1.9,3.4,3.3c0.8,1.4,1.2,3.1,1.2,5c0,2-0.3,3.9-0.9,5.6c-0.6,1.8-1.5,3.4-2.6,4.8c-1.2,1.4-2.5,2.5-4.2,3.2
			c-1.6,0.8-3.5,1.2-5.6,1.2c-2.1,0-4-0.4-5.4-1.2s-2.6-1.9-3.4-3.3c-0.8-1.4-1.2-3.1-1.2-4.9C463.7,42.2,464,40.4,464.6,38.6z"/>
		<path class="st0" d="M515.3,51.5h6l6.3,11.3h12.6L533,50.1c0.6-0.2,1.3-0.5,1.9-0.8c3.2-1.5,5.6-3.5,7.3-6.2
			c1.7-2.6,2.6-5.8,2.6-9.3c0-4.2-1.5-7.6-4.5-10c-3-2.4-7.2-3.6-12.7-3.6h-18.1L501,62.8h12L515.3,51.5z M530.9,31.1
			c1.2,0.8,1.8,2.2,1.8,3.9c0,2.3-0.7,4.1-2.2,5.3c-1.5,1.3-3.5,1.9-6.2,1.9h-7.1l2.5-12.4h6.3C528.1,29.8,529.7,30.2,530.9,31.1z"
			/>
		<path class="st0" d="M579.2,61.3c2.9-1,5.3-2.4,7-4.4c1.7-2,2.6-4.5,2.6-7.6c0-3.1-1.2-5.5-3.5-7.2c-0.7-0.5-1.4-0.9-2.3-1.3
			c2.2-0.9,4.1-2.2,5.4-3.9c1.5-1.8,2.2-4,2.2-6.7c0-3.2-1.3-5.7-3.8-7.4c-2.5-1.7-6.2-2.6-11-2.6h-21.5l-8.5,42.5h23.4
			C573,62.8,576.3,62.3,579.2,61.3z M573.1,29c1.6,0,2.8,0.3,3.7,0.8c0.9,0.5,1.3,1.4,1.3,2.5c0,1.1-0.2,1.9-0.7,2.7
			c-0.5,0.7-1.2,1.3-2.2,1.6s-2.2,0.5-3.6,0.5h-8.6l1.6-8.2H573.1z M561.3,45.5h10.6c1.5,0,2.6,0.3,3.6,0.8c0.9,0.6,1.4,1.5,1.4,2.7
			c0,1.7-0.6,2.9-1.9,3.8c-1.2,0.8-2.9,1.3-5,1.3h-10.4L561.3,45.5z"/>
		<polygon class="st0" points="613.1,20.3 601.1,20.3 592.6,62.8 604.6,62.8 		"/>
		<polygon class="st0" points="622.2,62.8 634.2,62.8 640.8,29.8 653.8,29.8 655.7,20.3 617.7,20.3 615.7,29.8 628.8,29.8 		"/>
		<path class="st0" d="M664.6,39.1c1.1,1.1,2.5,2,4,2.7c1.5,0.6,3.1,1,4.9,1c1.8,0,3.4-0.3,4.9-1c1.5-0.6,2.8-1.5,4-2.7
			c1.1-1.1,2-2.5,2.7-4c0.6-1.5,1-3.2,1-4.9s-0.3-3.4-0.9-4.9c-0.6-1.5-1.5-2.8-2.6-3.9c-1.1-1.1-2.4-2-4-2.6
			c-1.5-0.6-3.2-0.9-4.9-0.9c-1.8,0-3.4,0.3-4.9,1c-1.5,0.6-2.8,1.5-4,2.7c-1.1,1.1-2,2.5-2.7,4c-0.6,1.5-1,3.1-1,4.9
			c0,1.7,0.3,3.4,0.9,4.9C662.6,36.6,663.5,37.9,664.6,39.1z M664.6,26.3c0.5-1.2,1.1-2.2,2-3.1c0.9-0.9,1.9-1.6,3.1-2.1
			s2.5-0.7,3.9-0.7s2.7,0.2,3.9,0.7s2.2,1.2,3,2c0.8,0.9,1.5,1.9,2,3.1c0.5,1.2,0.7,2.5,0.7,3.9c0,1.4-0.2,2.7-0.7,3.9
			c-0.4,1.1-1,2-1.8,2.8l-2.8-4.4c0.3-0.1,0.5-0.3,0.7-0.5c1.1-0.8,1.6-2.1,1.6-3.7c0-1.5-0.5-2.7-1.6-3.6s-2.6-1.3-4.5-1.3h-6.2V37
			h4.4v-3.7h1.6l2.4,3.7h4.3c-0.1,0.1-0.1,0.1-0.2,0.2c-0.9,0.9-1.9,1.6-3.1,2.1c-1.2,0.5-2.5,0.8-3.9,0.8c-1.4,0-2.6-0.2-3.8-0.7
			c-1.2-0.5-2.2-1.2-3-2.1c-0.9-0.9-1.5-1.9-2-3.1c-0.5-1.2-0.7-2.5-0.7-3.9C663.9,28.8,664.1,27.5,664.6,26.3z M672.2,30.2v-3.6
			h1.5c0.7,0,1.2,0.2,1.5,0.5c0.4,0.3,0.5,0.8,0.5,1.3c0,0.6-0.2,1-0.5,1.3c-0.4,0.3-0.9,0.5-1.5,0.5H672.2z"/>
		<path class="st0" d="M261.2,92.7c1.2-1.3,2.7-2.4,4.3-3.1c1.7-0.7,3.5-1.1,5.6-1.1c2.1,0,4,0.4,5.6,1.3c1.6,0.8,2.8,2.1,3.8,3.7
			l8.7-6.9c-1.5-2.6-3.8-4.6-6.8-5.9c-3-1.4-6.5-2.1-10.4-2.1c-4,0-7.6,0.6-10.8,1.9c-3.3,1.3-6.1,3-8.4,5.3c-2.3,2.3-4.2,5-5.5,8.1
			c-1.3,3.1-1.9,6.5-1.9,10.2c0,3.7,0.9,6.9,2.6,9.7c1.7,2.8,4.2,5,7.4,6.6c3.2,1.6,7,2.4,11.3,2.4c3.8,0,7.3-0.6,10.4-1.8
			c3.1-1.2,5.9-3.2,8.3-6.1l-7.1-7c-1.5,1.7-3.1,3-4.9,3.8c-1.8,0.8-3.6,1.2-5.5,1.2c-2.1,0-4-0.4-5.6-1.2c-1.6-0.8-2.8-1.9-3.6-3.3
			c-0.8-1.4-1.2-3.1-1.2-5c0-2.1,0.3-4.1,1-5.9C259,95.6,259.9,94,261.2,92.7z"/>
		<path class="st0" d="M304.3,105.6h6.1l6.4,16.3h11.6h1.2H341l4.9-8.3H364l1.7,8.3h12l-10.3-42.5h-11.8L329,120.8l-8.6-20.5
			l17.7-20.9h-13.4l-13.4,16.5h-5.1l3.3-16.5h-12l-8.5,42.5h12L304.3,105.6z M359.3,91l2.8,13.7h-11L359.3,91z"/>
		<polygon class="st0" points="397.9,105.3 414.2,105.3 410.9,121.9 422.9,121.9 431.4,79.4 419.4,79.4 416.2,95.4 399.9,95.4 
			403.1,79.4 391.1,79.4 382.6,121.9 394.6,121.9 		"/>
		<polygon class="st0" points="466.1,97 460.9,121.9 472.8,121.9 481.3,79.4 469.8,79.4 447.3,104.3 452.4,79.4 440.6,79.4 
			432.1,121.9 443.6,121.9 		"/>
		<path class="st0" d="M520.8,83c-3-2.4-7.2-3.6-12.7-3.6h-18l-8.5,42.5h12l2.2-11.1h8.5c4.3,0,8-0.7,11.2-2.2
			c3.2-1.5,5.6-3.5,7.3-6.2c1.7-2.7,2.5-5.8,2.5-9.3C525.2,88.7,523.8,85.4,520.8,83z M510.9,99.4c-1.5,1.3-3.5,1.9-6.1,1.9h-7.1
			l2.5-12.4h6.3c2.1,0,3.7,0.4,4.9,1.3c1.2,0.8,1.8,2.2,1.8,3.9C513.1,96.4,512.4,98.2,510.9,99.4z"/>
		<path class="st0" d="M533.7,122.7c2.9-0.1,5.7-1.1,8.4-2.7c2.7-1.7,5.3-4.1,7.6-7.4l24.2-33.2h-12l-14.3,20.3l-5.8-20.3h-12.4
			l10.3,29.9l-0.3,0.3c-1,1.1-2,2-3.1,2.5c-1.1,0.6-2.2,0.9-3.4,0.9c-1.2,0-2.6-0.2-4.1-0.6l-3.9,8.6
			C527.8,122.3,530.8,122.8,533.7,122.7z"/>
		<path class="st0" d="M587.6,67c-0.5,3.3,0.2,5.8,2.1,7.5c1.9,1.7,4.9,2.5,9,2.5c4.1,0,7.2-0.8,9.4-2.4c2.2-1.6,3.6-4.1,4.1-7.6
			h-7.7c-0.2,1.5-0.8,2.6-1.7,3.3c-0.9,0.7-2.1,1-3.6,1c-1.5,0-2.6-0.4-3.3-1.1c-0.7-0.7-1-1.8-0.8-3.2H587.6z"/>
		<polygon class="st0" points="610,121.9 618.5,79.4 607.1,79.4 584.5,104.3 589.7,79.4 577.9,79.4 569.4,121.9 580.8,121.9 
			603.4,97 598.2,121.9 		"/>
		<path class="st0" d="M286,155.1c1.5-1.8,2.2-4,2.2-6.7c0-3.2-1.3-5.7-3.8-7.4c-2.5-1.7-6.2-2.6-11-2.6h-21.5l-8.5,42.5h23.4
			c3.7,0,7-0.5,9.9-1.5c2.9-1,5.3-2.4,7-4.4c1.7-2,2.6-4.5,2.6-7.6s-1.2-5.5-3.5-7.2c-0.7-0.5-1.4-0.9-2.3-1.3
			C282.8,158.1,284.6,156.8,286,155.1z M270.6,147.2c1.6,0,2.8,0.3,3.7,0.8c0.9,0.5,1.3,1.4,1.3,2.5c0,1.1-0.2,1.9-0.7,2.7
			c-0.5,0.7-1.2,1.3-2.2,1.6s-2.2,0.5-3.6,0.5h-8.6l1.6-8.2H270.6z M272.5,171c-1.2,0.8-2.9,1.3-5,1.3H257l1.7-8.6h10.6
			c1.5,0,2.6,0.3,3.6,0.8s1.4,1.5,1.4,2.7C274.3,168.9,273.7,170.2,272.5,171z"/>
		<path class="st0" d="M317.6,152H308l2.7-13.5h-11.8l-8.5,42.5h20.2c4.2,0,8-0.7,11.2-2.2c3.2-1.4,5.7-3.4,7.4-6
			c1.7-2.6,2.6-5.6,2.6-9.1C331.8,155.9,327.1,152,317.6,152z M318.4,168.8c-0.7,1.1-1.6,2-2.8,2.6c-1.2,0.6-2.6,0.9-4.2,0.9h-7.5
			l2.4-11.8h7.8c1.9,0,3.2,0.4,4.1,1.1c0.9,0.7,1.3,1.8,1.3,3.4C319.5,166.4,319.1,167.7,318.4,168.8z"/>
		<polygon class="st0" points="334.3,181 346.4,181 354.8,138.5 342.8,138.5 		"/>
		<polygon class="st0" points="370.4,163.4 375.5,138.5 363.7,138.5 355.2,181 366.7,181 389.2,156.1 384,181 395.9,181 
			404.4,138.5 392.9,138.5 		"/>
		<polygon class="st0" points="442.7,148 444.5,138.5 413.5,138.5 405,181 416.8,181 423.2,148 		"/>
		<path class="st0" d="M480.5,142.1c-3-2.4-7.2-3.6-12.7-3.6h-18l-8.5,42.5h12l2.2-11.1h8.5c4.3,0,8-0.7,11.2-2.2
			c3.2-1.5,5.6-3.5,7.3-6.2c1.7-2.7,2.5-5.8,2.5-9.3C485,147.8,483.5,144.5,480.5,142.1z M470.6,158.5c-1.5,1.3-3.5,1.9-6.1,1.9
			h-7.1l2.5-12.4h6.3c2.1,0,3.7,0.4,4.9,1.3c1.2,0.8,1.8,2.2,1.8,3.9C472.8,155.5,472.1,157.3,470.6,158.5z"/>
		<polygon class="st0" points="529.6,181 541.6,181 550.1,138.5 538.1,138.5 		"/>
		<path class="st0" d="M512.9,152h-9.6l2.7-13.5h-11.8l-8.5,42.5h20.2c4.2,0,8-0.7,11.2-2.2c3.2-1.4,5.7-3.4,7.4-6
			c1.7-2.6,2.6-5.6,2.6-9.1C527.1,155.9,522.4,152,512.9,152z M513.7,168.8c-0.7,1.1-1.6,2-2.8,2.6c-1.2,0.6-2.6,0.9-4.2,0.9h-7.5
			l2.4-11.8h7.8c1.9,0,3.2,0.4,4.1,1.1c0.9,0.7,1.3,1.8,1.3,3.4C514.8,166.4,514.4,167.7,513.7,168.8z"/>
		<path class="st0" d="M589.6,160.3c-0.7-0.5-1.4-0.9-2.3-1.3c2.2-0.9,4.1-2.2,5.4-3.9c1.5-1.8,2.2-4,2.2-6.7c0-3.2-1.3-5.7-3.8-7.4
			c-2.5-1.7-6.2-2.6-11-2.6h-21.5l-8.5,42.5h23.4c3.7,0,7-0.5,9.9-1.5c2.9-1,5.3-2.4,7-4.4c1.7-2,2.6-4.5,2.6-7.6
			S591.9,162,589.6,160.3z M577.3,147.2c1.6,0,2.8,0.3,3.7,0.8c0.9,0.5,1.3,1.4,1.3,2.5c0,1.1-0.2,1.9-0.7,2.7
			c-0.5,0.7-1.2,1.3-2.2,1.6s-2.2,0.5-3.6,0.5h-8.6l1.6-8.2H577.3z M579.2,171c-1.2,0.8-2.9,1.3-5,1.3h-10.4l1.7-8.6h10.6
			c1.5,0,2.6,0.3,3.6,0.8s1.4,1.5,1.4,2.7C581.1,168.9,580.5,170.2,579.2,171z"/>
		<path class="st0" d="M620.2,138.5L592.9,181h12.7l4.9-8.3h18.1l1.7,8.3h12L632,138.5H620.2z M615.8,163.9l8.2-13.7l2.8,13.7H615.8
			z"/>
		<path class="st0" d="M665.4,126.1c-0.5,3.3,0.2,5.8,2.1,7.5c1.9,1.7,4.9,2.5,9,2.5c4.1,0,7.2-0.8,9.4-2.4s3.6-4.1,4.1-7.6h-7.7
			c-0.2,1.5-0.8,2.6-1.7,3.3c-0.9,0.7-2.1,1-3.6,1c-1.5,0-2.6-0.4-3.3-1.1c-0.7-0.7-1-1.8-0.8-3.2H665.4z"/>
		<polygon class="st0" points="684.9,138.5 662.3,163.4 667.5,138.5 655.7,138.5 647.2,181 658.6,181 681.1,156.1 676,181 
			687.8,181 696.3,138.5 		"/>
	</g>
</g>
</svg>
