<?xml version="1.0" encoding="utf-8"?>
<!-- Generator: Adobe Illustrator 25.2.3, SVG Export Plug-In . SVG Version: 6.00 Build 0)  -->
<svg version="1.1" id="Layer_1" xmlns="http://www.w3.org/2000/svg" xmlns:xlink="http://www.w3.org/1999/xlink" x="0px" y="0px"
	 viewBox="0 0 681.2 200" style="enable-background:new 0 0 681.2 200;" xml:space="preserve">
<style type="text/css">
	.st0{fill:#FFFFFF;}
	.st1{fill:#282781;}
</style>
<g>
	<g>
		<rect x="481.2" class="st0" width="200" height="200"/>
		<g>
			<rect x="565.2" y="20" class="st1" width="6.4" height="6.4"/>
			<rect x="597.2" y="20" class="st1" width="6.4" height="6.4"/>
			<rect x="558.8" y="26.4" class="st1" width="6.4" height="6.4"/>
			<rect x="552.4" y="32.8" class="st1" width="6.4" height="6.4"/>
			<rect x="571.6" y="32.8" class="st1" width="6.4" height="6.4"/>
			<polygon class="st1" points="565.2,39.2 558.8,39.2 558.8,45.6 558.8,52 565.2,52 565.2,45.6 			"/>
			<polygon class="st1" points="610,39.2 610,32.8 597.2,32.8 597.2,26.4 590.8,26.4 590.8,32.8 590.8,39.2 597.2,39.2 597.2,45.6 
				610,45.6 			"/>
			<polygon class="st1" points="578,58.4 578,64.8 584.4,64.8 584.4,58.4 584.4,52 584.4,45.6 584.4,39.2 578,39.2 578,45.6 578,52 
				565.2,52 565.2,58.4 565.2,64.8 571.6,64.8 571.6,58.4 			"/>
			<polygon class="st1" points="597.2,52 597.2,45.6 590.8,45.6 590.8,52 590.8,58.4 590.8,64.8 597.2,64.8 597.2,58.4 603.6,58.4 
				603.6,52 			"/>
			<rect x="571.6" y="64.8" class="st1" width="6.4" height="6.4"/>
			<polygon class="st1" points="584.4,71.2 578,71.2 578,77.6 571.6,77.6 571.6,84 565.2,84 565.2,90.4 558.8,90.4 558.8,96.8 
				565.2,96.8 565.2,103.2 565.2,109.6 578,109.6 578,103.2 578,96.8 571.6,96.8 571.6,90.4 578,90.4 578,96.8 584.4,96.8 
				584.4,90.4 590.8,90.4 590.8,84 590.8,77.6 590.8,71.2 590.8,64.8 584.4,64.8 			"/>
			<rect x="642" y="71.2" class="st1" width="6.4" height="6.4"/>
			<rect x="558.8" y="77.6" class="st1" width="6.4" height="6.4"/>
			<rect x="629.2" y="77.6" class="st1" width="6.4" height="6.4"/>
			<rect x="648.4" y="77.6" class="st1" width="6.4" height="6.4"/>
			<rect x="552.4" y="84" class="st1" width="6.4" height="6.4"/>
			<rect x="635.6" y="84" class="st1" width="6.4" height="6.4"/>
			<polygon class="st1" points="546,96.8 539.6,96.8 539.6,103.2 552.4,103.2 552.4,96.8 552.4,90.4 546,90.4 			"/>
			<polygon class="st1" points="648.4,96.8 642,96.8 642,103.2 648.4,103.2 648.4,109.6 648.4,116 661.2,116 661.2,109.6 
				661.2,103.2 661.2,96.8 661.2,90.4 648.4,90.4 			"/>
			<rect x="501.2" y="96.8" class="st1" width="6.4" height="6.4"/>
			<polygon class="st1" points="526.8,109.6 533.2,109.6 533.2,116 552.4,116 552.4,109.6 539.6,109.6 539.6,103.2 526.8,103.2 			
				"/>
			<rect x="629.2" y="103.2" class="st1" width="6.4" height="6.4"/>
			<rect x="501.2" y="109.6" class="st1" width="6.4" height="6.4"/>
			<polygon class="st1" points="520.4,109.6 520.4,103.2 520.4,96.8 539.6,96.8 539.6,90.4 546,90.4 546,84 539.6,84 539.6,77.6 
				558.8,77.6 558.8,71.2 558.8,64.8 558.8,58.4 552.4,58.4 552.4,64.8 552.4,71.2 526.8,71.2 526.8,77.6 533.2,77.6 533.2,84 
				526.8,84 526.8,77.6 520.4,77.6 520.4,71.2 501.2,71.2 501.2,77.6 507.6,77.6 507.6,84 501.2,84 501.2,90.4 514,90.4 514,96.8 
				514,103.2 514,109.6 514,116 520.4,116 			"/>
			<rect x="558.8" y="109.6" class="st1" width="6.4" height="6.4"/>
			<rect x="635.6" y="109.6" class="st1" width="6.4" height="6.4"/>
			<rect x="507.6" y="116" class="st1" width="6.4" height="6.4"/>
			<rect x="520.4" y="116" class="st1" width="12.8" height="6.4"/>
			<rect x="571.6" y="116" class="st1" width="6.4" height="6.4"/>
			<polygon class="st1" points="597.2,116 590.8,116 590.8,109.6 597.2,109.6 597.2,103.2 584.4,103.2 584.4,109.6 584.4,116 
				584.4,122.4 597.2,122.4 			"/>
			<rect x="501.2" y="122.4" class="st1" width="6.4" height="6.4"/>
			<rect x="514" y="122.4" class="st1" width="6.4" height="6.4"/>
			<rect x="642" y="122.4" class="st1" width="6.4" height="6.4"/>
			<rect x="654.8" y="122.4" class="st1" width="6.4" height="6.4"/>
			<polygon class="st1" points="571.6,128.8 571.6,135.2 565.2,135.2 565.2,141.6 578,141.6 578,148 565.2,148 565.2,154.4 
				571.6,154.4 571.6,160.8 578,160.8 578,154.4 584.4,154.4 584.4,148 584.4,141.6 590.8,141.6 590.8,135.2 597.2,135.2 
				597.2,128.8 584.4,128.8 584.4,122.4 578,122.4 578,128.8 			"/>
			<polygon class="st1" points="648.4,135.2 648.4,141.6 648.4,148 661.2,148 661.2,141.6 661.2,135.2 654.8,135.2 654.8,128.8 
				648.4,128.8 			"/>
			<rect x="616.4" y="135.2" class="st1" width="6.4" height="6.4"/>
			<path class="st1" d="M642,135.2h-6.4v-6.4v-6.4h-6.4V116h-6.4v-6.4H610v-6.4v-6.4v-6.4h6.4v6.4v6.4h12.8v-6.4v-6.4h-6.4V84v-6.4
				v-6.4H610v-6.4v-6.4h-6.4v6.4v6.4v6.4h-6.4V84h6.4v6.4v6.4v6.4v6.4h-6.4v6.4h19.2v6.4h-12.8v6.4v6.4h-6.4v6.4h6.4v6.4h-6.4v-6.4
				h-6.4v6.4v6.4h6.4v6.4v6.4h6.4v6.4v6.4h6.4v-6.4v-6.4v-6.4h6.4v-6.4h6.4v6.4h12.8v-6.4V148h6.4v-6.4V135.2z M610,77.6h6.4V84H610
				V77.6z M629.2,148H610v-6.4v-6.4v-6.4h19.2v6.4v6.4V148z"/>
			<polygon class="st1" points="565.2,148 565.2,141.6 558.8,141.6 558.8,135.2 558.8,128.8 571.6,128.8 571.6,122.4 539.6,122.4 
				539.6,128.8 552.4,128.8 552.4,135.2 552.4,141.6 552.4,148 552.4,154.4 558.8,154.4 558.8,148 			"/>
			<rect x="642" y="148" class="st1" width="6.4" height="6.4"/>
			<rect x="558.8" y="154.4" class="st1" width="6.4" height="6.4"/>
			<polygon class="st1" points="584.4,160.8 578,160.8 578,167.2 590.8,167.2 590.8,160.8 590.8,154.4 584.4,154.4 			"/>
			<polygon class="st1" points="571.6,160.8 565.2,160.8 565.2,167.2 558.8,167.2 558.8,160.8 552.4,160.8 552.4,167.2 552.4,173.6 
				552.4,180 558.8,180 558.8,173.6 565.2,173.6 565.2,180 571.6,180 571.6,173.6 578,173.6 578,167.2 571.6,167.2 			"/>
			<polygon class="st1" points="654.8,167.2 654.8,173.6 648.4,173.6 648.4,180 661.2,180 661.2,173.6 661.2,167.2 661.2,160.8 
				654.8,160.8 			"/>
			<polygon class="st1" points="629.2,167.2 629.2,173.6 629.2,180 642,180 642,173.6 642,167.2 642,160.8 635.6,160.8 635.6,167.2 
							"/>
			<rect x="584.4" y="173.6" class="st1" width="6.4" height="6.4"/>
			<path class="st1" d="M546,58.4V52v-6.4v-6.4v-6.4v-6.4V20h-44.8v6.4v6.4v6.4v6.4V52v6.4v6.4H546V58.4z M507.6,58.4V52v-6.4v-6.4
				v-6.4v-6.4h32v6.4v6.4v6.4V52v6.4H507.6z"/>
			<rect x="514" y="32.8" class="st1" width="19.2" height="19.2"/>
			<path class="st1" d="M616.4,20v6.4v6.4v6.4v6.4V52v6.4v6.4h44.8v-6.4V52v-6.4v-6.4v-6.4v-6.4V20H616.4z M654.8,32.8v6.4v6.4V52
				v6.4h-32V52v-6.4v-6.4v-6.4v-6.4h32V32.8z"/>
			<rect x="629.2" y="32.8" class="st1" width="19.2" height="19.2"/>
			<path class="st1" d="M501.2,141.6v6.4v6.4v6.4v6.4v6.4v6.4H546v-6.4v-6.4v-6.4v-6.4V148v-6.4v-6.4h-44.8V141.6z M539.6,141.6v6.4
				v6.4v6.4v6.4v6.4h-32v-6.4v-6.4v-6.4V148v-6.4H539.6z"/>
			<rect x="514" y="148" class="st1" width="19.2" height="19.2"/>
		</g>
	</g>
	<g>
		<g>
			<polygon class="st0" points="25.9,46.5 32,46.5 38.4,62.8 51.1,62.8 42.1,41.2 59.7,20.3 46.4,20.3 33,36.8 27.8,36.8 31.1,20.3 
				19.1,20.3 10.6,62.8 22.7,62.8 			"/>
			<path class="st0" d="M67.5,53c-1.1,0.6-2.2,0.9-3.4,0.9c-1.2,0-2.6-0.2-4.1-0.6L56,61.9c3,1.3,5.9,1.9,8.8,1.7
				c2.9-0.1,5.7-1.1,8.4-2.7c2.7-1.7,5.3-4.1,7.6-7.4l24.2-33.2h-12L78.8,40.6L73,20.3H60.5l10.3,29.9l-0.3,0.3
				C69.6,51.6,68.5,52.5,67.5,53z"/>
			<polygon class="st0" points="112.3,62.8 118.8,29.8 134.9,29.8 128.5,62.8 140.3,62.8 148.8,20.3 109,20.3 100.5,62.8 			"/>
			<polygon class="st0" points="183.5,37.9 178.3,62.8 190.1,62.8 198.6,20.3 187.2,20.3 164.7,45.3 169.8,20.3 158,20.3 
				149.5,62.8 161,62.8 			"/>
			<path class="st0" d="M228.3,61.2c3.2,1.6,6.9,2.4,11.3,2.4c3.9,0,7.5-0.6,10.7-1.9c3.3-1.3,6.1-3,8.4-5.3c2.3-2.3,4.2-5,5.5-8.1
				c1.3-3.1,1.9-6.5,1.9-10.2c0-3.7-0.8-6.9-2.5-9.7s-4.1-5-7.3-6.6c-3.2-1.6-6.9-2.4-11.3-2.4c-3.9,0-7.5,0.6-10.7,1.9
				c-3.3,1.3-6.1,3-8.4,5.3c-2.3,2.3-4.2,5-5.5,8.1c-1.3,3.1-1.9,6.5-1.9,10.2c0,3.7,0.8,6.9,2.5,9.7S225.1,59.6,228.3,61.2z
				 M231.5,38.6c0.6-1.8,1.5-3.4,2.6-4.8c1.2-1.4,2.6-2.5,4.2-3.2c1.7-0.8,3.5-1.2,5.6-1.2c2.1,0,4,0.4,5.4,1.2
				c1.5,0.8,2.6,1.9,3.4,3.3c0.8,1.4,1.2,3.1,1.2,5c0,2-0.3,3.9-0.9,5.6c-0.6,1.8-1.5,3.4-2.6,4.8c-1.2,1.4-2.5,2.5-4.2,3.2
				c-1.6,0.8-3.5,1.2-5.6,1.2c-2.1,0-4-0.4-5.4-1.2s-2.6-1.9-3.4-3.3c-0.8-1.4-1.2-3.1-1.2-4.9C230.6,42.2,230.9,40.4,231.5,38.6z"
				/>
			<path class="st0" d="M282.2,51.5h6l6.3,11.3h12.6l-7.2-12.7c0.6-0.2,1.3-0.5,1.9-0.8c3.2-1.5,5.6-3.5,7.3-6.2
				c1.7-2.6,2.6-5.8,2.6-9.3c0-4.2-1.5-7.6-4.5-10c-3-2.4-7.2-3.6-12.7-3.6h-18.1l-8.5,42.5h12L282.2,51.5z M297.8,31.1
				c1.2,0.8,1.8,2.2,1.8,3.9c0,2.3-0.7,4.1-2.2,5.3c-1.5,1.3-3.5,1.9-6.2,1.9H284l2.5-12.4h6.3C295,29.8,296.6,30.2,297.8,31.1z"/>
			<path class="st0" d="M346.1,61.3c2.9-1,5.3-2.4,7-4.4c1.7-2,2.6-4.5,2.6-7.6c0-3.1-1.2-5.5-3.5-7.2c-0.7-0.5-1.4-0.9-2.3-1.3
				c2.2-0.9,4.1-2.2,5.4-3.9c1.5-1.8,2.2-4,2.2-6.7c0-3.2-1.3-5.7-3.8-7.4c-2.5-1.7-6.2-2.6-11-2.6h-21.5l-8.5,42.5h23.4
				C339.9,62.8,343.2,62.3,346.1,61.3z M340,29c1.6,0,2.8,0.3,3.7,0.8c0.9,0.5,1.3,1.4,1.3,2.5c0,1.1-0.2,1.9-0.7,2.7
				c-0.5,0.7-1.2,1.3-2.2,1.6s-2.2,0.5-3.6,0.5h-8.6l1.6-8.2H340z M328.2,45.5h10.6c1.5,0,2.6,0.3,3.6,0.8c0.9,0.6,1.4,1.5,1.4,2.7
				c0,1.7-0.6,2.9-1.9,3.8c-1.2,0.8-2.9,1.3-5,1.3h-10.4L328.2,45.5z"/>
			<polygon class="st0" points="380,20.3 368,20.3 359.5,62.8 371.5,62.8 			"/>
			<polygon class="st0" points="389.1,62.8 401.1,62.8 407.7,29.8 420.7,29.8 422.6,20.3 384.6,20.3 382.6,29.8 395.7,29.8 			"/>
			<path class="st0" d="M431.5,39.1c1.1,1.1,2.5,2,4,2.7c1.5,0.6,3.1,1,4.9,1c1.8,0,3.4-0.3,4.9-1c1.5-0.6,2.8-1.5,4-2.7
				c1.1-1.1,2-2.5,2.7-4c0.6-1.5,1-3.2,1-4.9s-0.3-3.4-0.9-4.9c-0.6-1.5-1.5-2.8-2.6-3.9c-1.1-1.1-2.4-2-4-2.6
				c-1.5-0.6-3.2-0.9-4.9-0.9c-1.8,0-3.4,0.3-4.9,1c-1.5,0.6-2.8,1.5-4,2.7c-1.1,1.1-2,2.5-2.7,4c-0.6,1.5-1,3.1-1,4.9
				c0,1.7,0.3,3.4,0.9,4.9C429.5,36.6,430.4,37.9,431.5,39.1z M431.5,26.3c0.5-1.2,1.1-2.2,2-3.1c0.9-0.9,1.9-1.6,3.1-2.1
				s2.5-0.7,3.9-0.7s2.7,0.2,3.9,0.7s2.2,1.2,3,2c0.8,0.9,1.5,1.9,2,3.1c0.5,1.2,0.7,2.5,0.7,3.9c0,1.4-0.2,2.7-0.7,3.9
				c-0.4,1.1-1,2-1.8,2.8l-2.8-4.4c0.3-0.1,0.5-0.3,0.7-0.5c1.1-0.8,1.6-2.1,1.6-3.7c0-1.5-0.5-2.7-1.6-3.6s-2.6-1.3-4.5-1.3h-6.2
				V37h4.4v-3.7h1.6l2.4,3.7h4.3c-0.1,0.1-0.1,0.1-0.2,0.2c-0.9,0.9-1.9,1.6-3.1,2.1c-1.2,0.5-2.5,0.8-3.9,0.8
				c-1.4,0-2.6-0.2-3.8-0.7c-1.2-0.5-2.2-1.2-3-2.1c-0.9-0.9-1.5-1.9-2-3.1c-0.5-1.2-0.7-2.5-0.7-3.9
				C430.8,28.8,431,27.5,431.5,26.3z M439.1,30.2v-3.6h1.5c0.7,0,1.2,0.2,1.5,0.5c0.4,0.3,0.5,0.8,0.5,1.3c0,0.6-0.2,1-0.5,1.3
				c-0.4,0.3-0.9,0.5-1.5,0.5H439.1z"/>
		</g>
		<g>
			<path class="st0" d="M95.5,92.7c1.2-1.3,2.7-2.4,4.3-3.1c1.7-0.7,3.5-1.1,5.6-1.1c2.1,0,4,0.4,5.6,1.3c1.6,0.8,2.8,2.1,3.8,3.7
				l8.7-6.9c-1.5-2.6-3.8-4.6-6.8-5.9c-3-1.4-6.5-2.1-10.4-2.1c-4,0-7.6,0.6-10.8,1.9c-3.3,1.3-6.1,3-8.4,5.3
				c-2.3,2.3-4.2,5-5.5,8.1c-1.3,3.1-1.9,6.5-1.9,10.2c0,3.7,0.9,6.9,2.6,9.7c1.7,2.8,4.2,5,7.4,6.6c3.2,1.6,7,2.4,11.3,2.4
				c3.8,0,7.3-0.6,10.4-1.8c3.1-1.2,5.9-3.2,8.3-6.1l-7.1-7c-1.5,1.7-3.1,3-4.9,3.8c-1.8,0.8-3.6,1.2-5.5,1.2c-2.1,0-4-0.4-5.6-1.2
				c-1.6-0.8-2.8-1.9-3.6-3.3c-0.8-1.4-1.2-3.1-1.2-5c0-2.1,0.3-4.1,1-5.9C93.4,95.6,94.3,94,95.5,92.7z"/>
			<path class="st0" d="M138.6,105.6h6.1l6.4,16.3h11.6h1.2h11.5l4.9-8.3h18.1l1.7,8.3h12l-10.3-42.5h-11.8l-26.6,41.4l-8.6-20.5
				l17.7-20.9h-13.4l-13.4,16.5h-5.1l3.3-16.5h-12l-8.5,42.5h12L138.6,105.6z M193.7,91l2.8,13.7h-11L193.7,91z"/>
			<polygon class="st0" points="232.3,105.3 248.6,105.3 245.3,121.9 257.3,121.9 265.8,79.4 253.8,79.4 250.6,95.4 234.3,95.4 
				237.5,79.4 225.4,79.4 216.9,121.9 229,121.9 			"/>
			<polygon class="st0" points="300.4,97 295.3,121.9 307.1,121.9 315.6,79.4 304.2,79.4 281.6,104.3 286.8,79.4 275,79.4 
				266.5,121.9 277.9,121.9 			"/>
			<path class="st0" d="M355.1,83c-3-2.4-7.2-3.6-12.7-3.6h-18l-8.5,42.5h12l2.2-11.1h8.5c4.3,0,8-0.7,11.2-2.2
				c3.2-1.5,5.6-3.5,7.3-6.2c1.7-2.7,2.5-5.8,2.5-9.3C359.6,88.7,358.1,85.4,355.1,83z M345.3,99.4c-1.5,1.3-3.5,1.9-6.1,1.9H332
				l2.5-12.4h6.3c2.1,0,3.7,0.4,4.9,1.3c1.2,0.8,1.8,2.2,1.8,3.9C347.5,96.4,346.8,98.2,345.3,99.4z"/>
			<path class="st0" d="M368.1,122.7c2.9-0.1,5.7-1.1,8.4-2.7c2.7-1.7,5.3-4.1,7.6-7.4l24.2-33.2h-12L382,99.7l-5.8-20.3h-12.4
				l10.3,29.9l-0.3,0.3c-1,1.1-2,2-3.1,2.5c-1.1,0.6-2.2,0.9-3.4,0.9c-1.2,0-2.6-0.2-4.1-0.6l-3.9,8.6
				C362.2,122.3,365.1,122.8,368.1,122.7z"/>
			<path class="st0" d="M422,67c-0.5,3.3,0.2,5.8,2.1,7.5c1.9,1.7,4.9,2.5,9,2.5c4.1,0,7.2-0.8,9.4-2.4c2.2-1.6,3.6-4.1,4.1-7.6
				h-7.7c-0.2,1.5-0.8,2.6-1.7,3.3c-0.9,0.7-2.1,1-3.6,1c-1.5,0-2.6-0.4-3.3-1.1c-0.7-0.7-1-1.8-0.8-3.2H422z"/>
			<polygon class="st0" points="444.4,121.9 452.9,79.4 441.4,79.4 418.9,104.3 424.1,79.4 412.2,79.4 403.7,121.9 415.2,121.9 
				437.7,97 432.6,121.9 			"/>
		</g>
		<g>
			<path class="st0" d="M42.5,155.1c1.5-1.8,2.2-4,2.2-6.7c0-3.2-1.3-5.7-3.8-7.4c-2.5-1.7-6.2-2.6-11-2.6H8.5L0,181h23.4
				c3.7,0,7-0.5,9.9-1.5c2.9-1,5.3-2.4,7-4.4c1.7-2,2.6-4.5,2.6-7.6s-1.2-5.5-3.5-7.2c-0.7-0.5-1.4-0.9-2.3-1.3
				C39.4,158.1,41.2,156.8,42.5,155.1z M27.1,147.2c1.6,0,2.8,0.3,3.7,0.8c0.9,0.5,1.3,1.4,1.3,2.5c0,1.1-0.2,1.9-0.7,2.7
				c-0.5,0.7-1.2,1.3-2.2,1.6s-2.2,0.5-3.6,0.5H17l1.6-8.2H27.1z M29,171c-1.2,0.8-2.9,1.3-5,1.3H13.6l1.7-8.6h10.6
				c1.5,0,2.6,0.3,3.6,0.8s1.4,1.5,1.4,2.7C30.9,168.9,30.3,170.2,29,171z"/>
			<path class="st0" d="M74.2,152h-9.6l2.7-13.5H55.5L47,181h20.2c4.2,0,8-0.7,11.2-2.2c3.2-1.4,5.7-3.4,7.4-6
				c1.7-2.6,2.6-5.6,2.6-9.1C88.4,155.9,83.6,152,74.2,152z M75,168.8c-0.7,1.1-1.6,2-2.8,2.6c-1.2,0.6-2.6,0.9-4.2,0.9h-7.5
				l2.4-11.8h7.8c1.9,0,3.2,0.4,4.1,1.1c0.9,0.7,1.3,1.8,1.3,3.4C76,166.4,75.7,167.7,75,168.8z"/>
			<polygon class="st0" points="90.9,181 102.9,181 111.4,138.5 99.4,138.5 			"/>
			<polygon class="st0" points="127,163.4 132.1,138.5 120.3,138.5 111.8,181 123.3,181 145.8,156.1 140.6,181 152.4,181 
				160.9,138.5 149.5,138.5 			"/>
			<polygon class="st0" points="199.2,148 201.1,138.5 170,138.5 161.5,181 173.4,181 179.8,148 			"/>
			<path class="st0" d="M237,142.1c-3-2.4-7.2-3.6-12.7-3.6h-18l-8.5,42.5h12l2.2-11.1h8.5c4.3,0,8-0.7,11.2-2.2
				c3.2-1.5,5.6-3.5,7.3-6.2c1.7-2.7,2.5-5.8,2.5-9.3C241.5,147.8,240,144.5,237,142.1z M227.2,158.5c-1.5,1.3-3.5,1.9-6.1,1.9h-7.1
				l2.5-12.4h6.3c2.1,0,3.7,0.4,4.9,1.3c1.2,0.8,1.8,2.2,1.8,3.9C229.4,155.5,228.7,157.3,227.2,158.5z"/>
			<polygon class="st0" points="286.2,181 298.2,181 306.7,138.5 294.7,138.5 			"/>
			<path class="st0" d="M269.5,152h-9.6l2.7-13.5h-11.8l-8.5,42.5h20.2c4.2,0,8-0.7,11.2-2.2c3.2-1.4,5.7-3.4,7.4-6
				c1.7-2.6,2.6-5.6,2.6-9.1C283.6,155.9,278.9,152,269.5,152z M270.3,168.8c-0.7,1.1-1.6,2-2.8,2.6c-1.2,0.6-2.6,0.9-4.2,0.9h-7.5
				l2.4-11.8h7.8c1.9,0,3.2,0.4,4.1,1.1c0.9,0.7,1.3,1.8,1.3,3.4C271.3,166.4,271,167.7,270.3,168.8z"/>
			<path class="st0" d="M346.1,160.3c-0.7-0.5-1.4-0.9-2.3-1.3c2.2-0.9,4.1-2.2,5.4-3.9c1.5-1.8,2.2-4,2.2-6.7
				c0-3.2-1.3-5.7-3.8-7.4c-2.5-1.7-6.2-2.6-11-2.6h-21.5l-8.5,42.5h23.4c3.7,0,7-0.5,9.9-1.5c2.9-1,5.3-2.4,7-4.4
				c1.7-2,2.6-4.5,2.6-7.6S348.5,162,346.1,160.3z M333.9,147.2c1.6,0,2.8,0.3,3.7,0.8c0.9,0.5,1.3,1.4,1.3,2.5
				c0,1.1-0.2,1.9-0.7,2.7c-0.5,0.7-1.2,1.3-2.2,1.6s-2.2,0.5-3.6,0.5h-8.6l1.6-8.2H333.9z M335.8,171c-1.2,0.8-2.9,1.3-5,1.3h-10.4
				l1.7-8.6h10.6c1.5,0,2.6,0.3,3.6,0.8s1.4,1.5,1.4,2.7C337.7,168.9,337,170.2,335.8,171z"/>
			<path class="st0" d="M376.7,138.5L349.5,181h12.7l4.9-8.3h18.1l1.7,8.3h12l-10.3-42.5H376.7z M372.3,163.9l8.2-13.7l2.8,13.7
				H372.3z"/>
			<path class="st0" d="M422,126.1c-0.5,3.3,0.2,5.8,2.1,7.5c1.9,1.7,4.9,2.5,9,2.5c4.1,0,7.2-0.8,9.4-2.4s3.6-4.1,4.1-7.6h-7.7
				c-0.2,1.5-0.8,2.6-1.7,3.3c-0.9,0.7-2.1,1-3.6,1c-1.5,0-2.6-0.4-3.3-1.1c-0.7-0.7-1-1.8-0.8-3.2H422z"/>
			<polygon class="st0" points="441.4,138.5 418.9,163.4 424.1,138.5 412.2,138.5 403.7,181 415.2,181 437.7,156.1 432.6,181 
				444.4,181 452.9,138.5 			"/>
		</g>
	</g>
</g>
</svg>
