<?xml version="1.0" encoding="utf-8"?>
<!-- Generator: Adobe Illustrator 25.2.3, SVG Export Plug-In . SVG Version: 6.00 Build 0)  -->
<svg version="1.1" id="Layer_1" xmlns="http://www.w3.org/2000/svg" xmlns:xlink="http://www.w3.org/1999/xlink" x="0px" y="0px"
	 viewBox="0 0 858 200" style="enable-background:new 0 0 858 200;" xml:space="preserve">
<style type="text/css">
	.st0{fill:#FFFFFF;}
	.st1{fill:#282781;}
</style>
<g>
	<g>
		<g>
			<rect class="st0" width="200" height="200"/>
			<g>
				<rect x="84" y="20" class="st1" width="6.4" height="6.4"/>
				<rect x="116" y="20" class="st1" width="6.4" height="6.4"/>
				<rect x="77.6" y="26.4" class="st1" width="6.4" height="6.4"/>
				<rect x="71.2" y="32.8" class="st1" width="6.4" height="6.4"/>
				<rect x="90.4" y="32.8" class="st1" width="6.4" height="6.4"/>
				<polygon class="st1" points="84,39.2 77.6,39.2 77.6,45.6 77.6,52 84,52 84,45.6 				"/>
				<polygon class="st1" points="128.8,39.2 128.8,32.8 116,32.8 116,26.4 109.6,26.4 109.6,32.8 109.6,39.2 116,39.2 116,45.6 
					128.8,45.6 				"/>
				<polygon class="st1" points="96.8,58.4 96.8,64.8 103.2,64.8 103.2,58.4 103.2,52 103.2,45.6 103.2,39.2 96.8,39.2 96.8,45.6 
					96.8,52 84,52 84,58.4 84,64.8 90.4,64.8 90.4,58.4 				"/>
				<polygon class="st1" points="116,52 116,45.6 109.6,45.6 109.6,52 109.6,58.4 109.6,64.8 116,64.8 116,58.4 122.4,58.4 
					122.4,52 				"/>
				<rect x="90.4" y="64.8" class="st1" width="6.4" height="6.4"/>
				<polygon class="st1" points="103.2,71.2 96.8,71.2 96.8,77.6 90.4,77.6 90.4,84 84,84 84,90.4 77.6,90.4 77.6,96.8 84,96.8 
					84,103.2 84,109.6 96.8,109.6 96.8,103.2 96.8,96.8 90.4,96.8 90.4,90.4 96.8,90.4 96.8,96.8 103.2,96.8 103.2,90.4 109.6,90.4 
					109.6,84 109.6,77.6 109.6,71.2 109.6,64.8 103.2,64.8 				"/>
				<rect x="160.8" y="71.2" class="st1" width="6.4" height="6.4"/>
				<rect x="77.6" y="77.6" class="st1" width="6.4" height="6.4"/>
				<rect x="148" y="77.6" class="st1" width="6.4" height="6.4"/>
				<rect x="167.2" y="77.6" class="st1" width="6.4" height="6.4"/>
				<rect x="71.2" y="84" class="st1" width="6.4" height="6.4"/>
				<rect x="154.4" y="84" class="st1" width="6.4" height="6.4"/>
				<polygon class="st1" points="64.8,96.8 58.4,96.8 58.4,103.2 71.2,103.2 71.2,96.8 71.2,90.4 64.8,90.4 				"/>
				<polygon class="st1" points="167.2,96.8 160.8,96.8 160.8,103.2 167.2,103.2 167.2,109.6 167.2,116 180,116 180,109.6 
					180,103.2 180,96.8 180,90.4 167.2,90.4 				"/>
				<rect x="20" y="96.8" class="st1" width="6.4" height="6.4"/>
				<polygon class="st1" points="45.6,109.6 52,109.6 52,116 71.2,116 71.2,109.6 58.4,109.6 58.4,103.2 45.6,103.2 				"/>
				<rect x="148" y="103.2" class="st1" width="6.4" height="6.4"/>
				<rect x="20" y="109.6" class="st1" width="6.4" height="6.4"/>
				<polygon class="st1" points="39.2,109.6 39.2,103.2 39.2,96.8 58.4,96.8 58.4,90.4 64.8,90.4 64.8,84 58.4,84 58.4,77.6 
					77.6,77.6 77.6,71.2 77.6,64.8 77.6,58.4 71.2,58.4 71.2,64.8 71.2,71.2 45.6,71.2 45.6,77.6 52,77.6 52,84 45.6,84 45.6,77.6 
					39.2,77.6 39.2,71.2 20,71.2 20,77.6 26.4,77.6 26.4,84 20,84 20,90.4 32.8,90.4 32.8,96.8 32.8,103.2 32.8,109.6 32.8,116 
					39.2,116 				"/>
				<rect x="77.6" y="109.6" class="st1" width="6.4" height="6.4"/>
				<rect x="154.4" y="109.6" class="st1" width="6.4" height="6.4"/>
				<rect x="26.4" y="116" class="st1" width="6.4" height="6.4"/>
				<rect x="39.2" y="116" class="st1" width="12.8" height="6.4"/>
				<rect x="90.4" y="116" class="st1" width="6.4" height="6.4"/>
				<polygon class="st1" points="116,116 109.6,116 109.6,109.6 116,109.6 116,103.2 103.2,103.2 103.2,109.6 103.2,116 
					103.2,122.4 116,122.4 				"/>
				<rect x="20" y="122.4" class="st1" width="6.4" height="6.4"/>
				<rect x="32.8" y="122.4" class="st1" width="6.4" height="6.4"/>
				<rect x="160.8" y="122.4" class="st1" width="6.4" height="6.4"/>
				<rect x="173.6" y="122.4" class="st1" width="6.4" height="6.4"/>
				<polygon class="st1" points="90.4,128.8 90.4,135.2 84,135.2 84,141.6 96.8,141.6 96.8,148 84,148 84,154.4 90.4,154.4 
					90.4,160.8 96.8,160.8 96.8,154.4 103.2,154.4 103.2,148 103.2,141.6 109.6,141.6 109.6,135.2 116,135.2 116,128.8 103.2,128.8 
					103.2,122.4 96.8,122.4 96.8,128.8 				"/>
				<polygon class="st1" points="167.2,135.2 167.2,141.6 167.2,148 180,148 180,141.6 180,135.2 173.6,135.2 173.6,128.8 
					167.2,128.8 				"/>
				<rect x="135.2" y="135.2" class="st1" width="6.4" height="6.4"/>
				<path class="st1" d="M160.8,135.2h-6.4v-6.4v-6.4H148V116h-6.4v-6.4h-12.8v-6.4v-6.4v-6.4h6.4v6.4v6.4H148v-6.4v-6.4h-6.4V84
					v-6.4v-6.4h-12.8v-6.4v-6.4h-6.4v6.4v6.4v6.4H116V84h6.4v6.4v6.4v6.4v6.4H116v6.4h19.2v6.4h-12.8v6.4v6.4H116v6.4h6.4v6.4H116
					v-6.4h-6.4v6.4v6.4h6.4v6.4v6.4h6.4v6.4v6.4h6.4v-6.4v-6.4v-6.4h6.4v-6.4h6.4v6.4h12.8v-6.4V148h6.4v-6.4L160.8,135.2
					L160.8,135.2z M128.8,77.6h6.4V84h-6.4V77.6z M148,148h-19.2v-6.4v-6.4v-6.4H148v6.4v6.4V148z"/>
				<polygon class="st1" points="84,148 84,141.6 77.6,141.6 77.6,135.2 77.6,128.8 90.4,128.8 90.4,122.4 58.4,122.4 58.4,128.8 
					71.2,128.8 71.2,135.2 71.2,141.6 71.2,148 71.2,154.4 77.6,154.4 77.6,148 				"/>
				<rect x="160.8" y="148" class="st1" width="6.4" height="6.4"/>
				<rect x="77.6" y="154.4" class="st1" width="6.4" height="6.4"/>
				<polygon class="st1" points="103.2,160.8 96.8,160.8 96.8,167.2 109.6,167.2 109.6,160.8 109.6,154.4 103.2,154.4 				"/>
				<polygon class="st1" points="90.4,160.8 84,160.8 84,167.2 77.6,167.2 77.6,160.8 71.2,160.8 71.2,167.2 71.2,173.6 71.2,180 
					77.6,180 77.6,173.6 84,173.6 84,180 90.4,180 90.4,173.6 96.8,173.6 96.8,167.2 90.4,167.2 				"/>
				<polygon class="st1" points="173.6,167.2 173.6,173.6 167.2,173.6 167.2,180 180,180 180,173.6 180,167.2 180,160.8 
					173.6,160.8 				"/>
				<polygon class="st1" points="148,167.2 148,173.6 148,180 160.8,180 160.8,173.6 160.8,167.2 160.8,160.8 154.4,160.8 
					154.4,167.2 				"/>
				<rect x="103.2" y="173.6" class="st1" width="6.4" height="6.4"/>
				<path class="st1" d="M64.8,58.4V52v-6.4v-6.4v-6.4v-6.4V20H20v6.4v6.4v6.4v6.4V52v6.4v6.4h44.8V58.4z M26.4,58.4V52v-6.4v-6.4
					v-6.4v-6.4h32v6.4v6.4v6.4V52v6.4H26.4z"/>
				<rect x="32.8" y="32.8" class="st1" width="19.2" height="19.2"/>
				<path class="st1" d="M135.2,20v6.4v6.4v6.4v6.4V52v6.4v6.4H180v-6.4V52v-6.4v-6.4v-6.4v-6.4V20H135.2z M173.6,32.8v6.4v6.4V52
					v6.4h-32V52v-6.4v-6.4v-6.4v-6.4h32V32.8z"/>
				<rect x="148" y="32.8" class="st1" width="19.2" height="19.2"/>
				<path class="st1" d="M20,141.6v6.4v6.4v6.4v6.4v6.4v6.4h44.8v-6.4v-6.4v-6.4v-6.4V148v-6.4v-6.4H20V141.6z M58.4,141.6v6.4v6.4
					v6.4v6.4v6.4h-32v-6.4v-6.4v-6.4V148v-6.4H58.4z"/>
				<rect x="32.8" y="148" class="st1" width="19.2" height="19.2"/>
			</g>
		</g>
	</g>
	<g>
		<path class="st0" d="M261.7,62.7c-4.4,0-8.3-0.8-11.5-2.4c-3.2-1.6-5.7-3.8-7.4-6.7c-1.7-2.8-2.6-6.1-2.6-9.9
			c0-3.8,0.7-7.2,2-10.4c1.3-3.1,3.2-5.9,5.5-8.2c2.4-2.3,5.2-4.1,8.5-5.4c3.3-1.3,6.9-1.9,10.9-1.9c4.4,0,8.3,0.8,11.5,2.4
			c3.2,1.6,5.7,3.8,7.4,6.7c1.7,2.8,2.6,6.1,2.6,9.9c0,3.8-0.7,7.2-2,10.4c-1.3,3.1-3.2,5.9-5.5,8.2c-2.4,2.3-5.2,4.1-8.5,5.4
			C269.3,62,265.7,62.7,261.7,62.7z M262.8,52.6c2.1,0,4-0.4,5.7-1.2c1.7-0.8,3.1-1.9,4.2-3.3c1.2-1.4,2.1-3,2.7-4.8
			c0.6-1.8,0.9-3.7,0.9-5.7c0-1.9-0.4-3.6-1.2-5c-0.8-1.4-2-2.6-3.4-3.4c-1.5-0.8-3.3-1.2-5.5-1.2c-2.1,0-4,0.4-5.7,1.2
			c-1.7,0.8-3.1,1.9-4.3,3.3s-2.1,3-2.7,4.8c-0.6,1.8-0.9,3.7-0.9,5.7c0,1.9,0.4,3.6,1.2,5c0.8,1.5,1.9,2.6,3.4,3.4
			C258.8,52.2,260.6,52.6,262.8,52.6z"/>
		<path class="st0" d="M290.5,61.8l8.6-43.1h18.4c5.5,0,9.8,1.2,12.8,3.6c3,2.4,4.5,5.8,4.5,10.1c0,3.6-0.9,6.8-2.6,9.5
			c-1.7,2.7-4.2,4.8-7.4,6.2c-3.2,1.5-7,2.2-11.3,2.2h-14l6.5-5.2l-3.3,16.7H290.5z M305.8,46.5l-4.2-5.6h12.6
			c2.7,0,4.8-0.6,6.3-1.9c1.5-1.3,2.2-3.1,2.2-5.4c0-1.8-0.6-3.1-1.8-4c-1.2-0.9-2.9-1.3-5-1.3h-11.8l6.5-5.8L305.8,46.5z
			 M317.6,61.8l-8.8-15.7h12.6l8.9,15.7H317.6z"/>
		<path class="st0" d="M336.1,61.8l8.6-43.1h21.8c4.9,0,8.6,0.9,11.1,2.6c2.5,1.7,3.8,4.2,3.8,7.5c0,2.7-0.7,4.9-2.2,6.8
			c-1.5,1.8-3.5,3.3-6,4.2c-2.5,1-5.3,1.4-8.4,1.4l1.7-3c4,0,7.1,0.9,9.5,2.6c2.3,1.7,3.5,4.1,3.5,7.3c0,3.1-0.9,5.7-2.6,7.7
			c-1.7,2-4.1,3.5-7.1,4.5c-3,1-6.3,1.5-10.1,1.5H336.1z M349.9,53h10.6c2.1,0,3.8-0.4,5.1-1.3c1.3-0.9,1.9-2.1,1.9-3.8
			c0-1.3-0.5-2.2-1.4-2.8c-0.9-0.6-2.2-0.9-3.6-0.9h-11.8l1.7-8.4h9.8c1.4,0,2.7-0.2,3.7-0.6c1-0.4,1.8-0.9,2.2-1.7s0.7-1.6,0.7-2.7
			c0-1.2-0.5-2.1-1.4-2.6c-0.9-0.5-2.2-0.8-3.8-0.8H355L349.9,53z"/>
		<path class="st0" d="M383.5,61.8l8.6-43.1h12.2l-8.6,43.1H383.5z"/>
		<path class="st0" d="M413.4,61.8l6.7-33.4h-13.2l2-9.7h38.6l-2,9.7h-13.2l-6.7,33.4H413.4z"/>
		<path class="st0" d="M465.5,41.4c-1.8,0-3.5-0.3-5-1c-1.5-0.6-2.9-1.5-4-2.7c-1.1-1.2-2-2.5-2.7-4c-0.6-1.5-1-3.2-1-5
			c0-1.8,0.3-3.4,1-5c0.6-1.5,1.5-2.9,2.7-4c1.1-1.2,2.5-2.1,4-2.7c1.5-0.6,3.2-1,5-1s3.5,0.3,5,1c1.5,0.6,2.9,1.5,4,2.7
			c1.1,1.1,2,2.5,2.7,4c0.6,1.5,1,3.2,1,5s-0.3,3.5-1,5c-0.6,1.5-1.5,2.9-2.7,4.1c-1.2,1.2-2.5,2.1-4,2.7
			C468.9,41.1,467.3,41.4,465.5,41.4z M465.5,38.7c1.4,0,2.7-0.3,3.9-0.8c1.2-0.5,2.2-1.2,3.1-2.1c0.9-0.9,1.6-2,2.1-3.2
			c0.5-1.2,0.7-2.5,0.7-3.9c0-1.4-0.2-2.7-0.7-3.9c-0.5-1.2-1.1-2.3-2-3.1c-0.9-0.9-1.9-1.6-3.1-2.1c-1.2-0.5-2.5-0.7-3.9-0.7
			c-1.4,0-2.7,0.3-3.9,0.8c-1.2,0.5-2.2,1.2-3.1,2.1c-0.9,0.9-1.6,2-2,3.2c-0.5,1.2-0.7,2.5-0.7,3.9c0,1.4,0.2,2.7,0.7,3.9
			c0.5,1.2,1.2,2.3,2,3.2c0.9,0.9,1.9,1.6,3.1,2.1S464.1,38.7,465.5,38.7z M459.8,35.6V21.9h6.2c2,0,3.5,0.4,4.6,1.3
			s1.6,2.1,1.6,3.6c0,1.6-0.5,2.9-1.6,3.7c-1.1,0.8-2.6,1.3-4.6,1.3h-1.8v3.7H459.8z M464.2,28.7h1.5c0.7,0,1.2-0.2,1.6-0.5
			c0.4-0.3,0.6-0.8,0.6-1.3c0-0.6-0.2-1.1-0.6-1.4c-0.4-0.3-0.9-0.5-1.6-0.5h-1.5V28.7z M468.3,35.6l-3.4-5.2h4.5l3.4,5.2H468.3z"/>
		<path class="st0" d="M513.8,62.7c-4.4,0-8.2-0.8-11.5-2.4c-3.3-1.6-5.8-3.8-7.5-6.7c-1.8-2.9-2.6-6.1-2.6-9.9
			c0-3.7,0.7-7.2,2-10.3c1.3-3.2,3.2-5.9,5.5-8.2c2.4-2.3,5.2-4.1,8.5-5.4c3.3-1.3,7-1.9,11-1.9c4,0,7.5,0.7,10.6,2.1
			c3.1,1.4,5.4,3.4,6.9,6l-8.8,7c-1-1.6-2.3-2.9-3.8-3.8c-1.6-0.9-3.5-1.3-5.6-1.3c-2.1,0-4,0.4-5.7,1.1c-1.7,0.7-3.2,1.8-4.4,3.1
			s-2.2,2.9-2.8,4.8c-0.7,1.8-1,3.8-1,5.9c0,1.9,0.4,3.6,1.3,5.1c0.8,1.5,2.1,2.6,3.6,3.4s3.5,1.2,5.6,1.2c1.9,0,3.8-0.4,5.6-1.2
			c1.8-0.8,3.4-2.1,5-3.8l7.2,7.1c-2.4,2.9-5.2,5-8.4,6.2C521.2,62.1,517.7,62.7,513.8,62.7z"/>
		<path class="st0" d="M531.5,61.8l27.6-43.1h12l10.4,43.1h-12.1l-7.7-37.3h4.8l-22.2,37.3H531.5z M543.6,53.4l4.9-9h21.1l1.4,9
			H543.6z"/>
		<path class="st0" d="M593.9,61.8l7.1-36.1l2.2,2.7h-15.7l1.9-9.7h38.4l-1.9,9.7h-16.1l3.2-2.7l-7.1,36.1H593.9z"/>
		<path class="st0" d="M652.4,32.4c9.6,0,14.3,3.9,14.3,11.8c0,3.5-0.9,6.6-2.6,9.2c-1.8,2.6-4.3,4.7-7.5,6.1
			c-3.2,1.5-7,2.2-11.3,2.2h-20.5l8.6-43.1h12l-2.8,13.7H652.4z M646,53.1c1.6,0,3.1-0.3,4.3-0.9s2.2-1.5,2.9-2.6
			c0.7-1.1,1-2.4,1-3.9c0-1.6-0.4-2.7-1.3-3.4c-0.9-0.7-2.3-1.1-4.2-1.1h-7.9l-2.4,11.9H646z M669.3,61.8l8.6-43.1h12.2l-8.6,43.1
			H669.3z"/>
		<path class="st0" d="M690.5,61.8l8.6-43.1h40.4l-8.6,43.1h-12l7.1-36.1l2.2,2.7h-21.8l3.3-2.7l-7.1,36.1H690.5z"/>
		<path class="st0" d="M753.8,61.8l27.6-43.1h12l10.4,43.1h-12.1L784,24.5h4.8l-22.2,37.3H753.8z M765.8,53.4l4.9-9h21.1l1.4,9
			H765.8z"/>
		<path class="st0" d="M810.9,62.7c-1,0-1.9-0.1-2.8-0.2c-0.9-0.1-1.8-0.3-2.6-0.6l2.6-10c0.5,0.1,1,0.2,1.6,0.2
			c1.4,0,2.7-0.5,3.7-1.5c1-1,2-2.7,3-5.1c0.9-2.4,1.9-5.6,2.8-9.6l4.1-17.2H858l-8.6,43.1h-12l7.2-36.1l2.2,2.7h-17.4l3-2.8
			l-2.8,12.3c-1.1,4.7-2.2,8.7-3.4,11.8c-1.2,3.2-2.5,5.7-3.9,7.6c-1.4,1.9-3.1,3.3-4.9,4.2C815.5,62.2,813.4,62.7,810.9,62.7z"/>
		<path class="st0" d="M262,122.6c-4.4,0-8.2-0.8-11.5-2.4s-5.8-3.8-7.5-6.7c-1.8-2.9-2.6-6.1-2.6-9.9c0-3.7,0.7-7.2,2-10.3
			c1.3-3.2,3.2-5.9,5.5-8.2c2.4-2.3,5.2-4.1,8.5-5.4c3.3-1.3,7-1.9,11-1.9c4,0,7.5,0.7,10.6,2.1c3.1,1.4,5.4,3.4,6.9,6l-8.8,7
			c-1-1.6-2.3-2.9-3.8-3.8c-1.6-0.9-3.5-1.3-5.6-1.3c-2.1,0-4,0.4-5.7,1.1c-1.7,0.7-3.2,1.8-4.4,3.1c-1.2,1.4-2.2,2.9-2.8,4.8
			c-0.7,1.8-1,3.8-1,5.9c0,1.9,0.4,3.6,1.3,5.1c0.8,1.5,2.1,2.6,3.6,3.4c1.6,0.8,3.5,1.2,5.6,1.2c1.9,0,3.8-0.4,5.6-1.2
			c1.8-0.8,3.4-2.1,5-3.8l7.2,7.1c-2.4,2.9-5.2,5-8.4,6.2C269.3,122,265.8,122.6,262,122.6z"/>
		<path class="st0" d="M284.7,121.8l8.6-43.1h12.2l-8.6,43.1H284.7z M296.6,105.2l2-9.9h15.6l-1.9,9.9H296.6z M315.2,101.5
			l-11.8-1.2L321,78.7h13.5L315.2,101.5z M312.8,121.8l-8.1-20.5l10-5.7l11,26.2H312.8z"/>
		<path class="st0" d="M324.6,121.8l27.6-43.1h12l10.4,43.1h-12.1l-7.7-37.3h4.8l-22.2,37.3H324.6z M336.7,113.4l4.9-9h21.1l1.4,9
			H336.7z"/>
		<path class="st0" d="M391.8,121.8h-12.2l8.6-43.1h12.2L391.8,121.8z M412.6,104.9h-18.3l2-10.1h18.3L412.6,104.9z M417,78.7h12.2
			l-8.6,43.1h-12.2L417,78.7z"/>
		<path class="st0" d="M443.8,112.3h22.6l-2,9.4h-34.5l8.6-43.1h33.7l-1.9,9.4h-21.7L443.8,112.3z M446.3,95.3h20l-1.8,9.1h-20
			L446.3,95.3z"/>
		<path class="st0" d="M471.1,121.8l8.6-43.1H498c5.6,0,9.9,1.2,12.9,3.6c3,2.4,4.6,5.8,4.6,10.2c0,3.6-0.9,6.8-2.6,9.5
			c-1.7,2.7-4.2,4.8-7.4,6.3c-3.2,1.5-7,2.2-11.3,2.2h-14l6.5-5.4l-3.3,16.7H471.1z M486.3,106.5l-4.2-5.6h12.6
			c2.7,0,4.7-0.6,6.2-1.9c1.5-1.3,2.2-3.1,2.2-5.4c0-1.8-0.6-3.1-1.8-4s-2.9-1.3-5-1.3h-11.7l6.5-5.8L486.3,106.5z"/>
		<path class="st0" d="M515.6,122.6c-1,0-1.9-0.1-2.8-0.2c-0.9-0.1-1.8-0.3-2.6-0.6l2.6-10c0.5,0.1,1,0.2,1.6,0.2
			c1.4,0,2.7-0.5,3.7-1.5c1-1,2-2.7,3-5.1c0.9-2.4,1.9-5.6,2.8-9.6l4.1-17.2h34.7l-8.6,43.1h-12l7.2-36.1l2.2,2.7H534l3-2.8
			l-2.8,12.3c-1.1,4.7-2.2,8.7-3.4,11.8s-2.5,5.7-3.9,7.6c-1.4,1.9-3.1,3.3-4.9,4.2C520.2,122.2,518,122.6,515.6,122.6z"/>
		<path class="st0" d="M577.3,112.3h22.6l-2,9.4h-34.5l8.6-43.1h33.7l-1.9,9.4h-21.7L577.3,112.3z M579.8,95.3h20l-1.8,9.1h-20
			L579.8,95.3z"/>
		<path class="st0" d="M250.7,181.7l3.6-18.3l1.4,7.5l-12.8-32.3h12.2l9.3,23.4l-7.6,0.1l18.8-23.5H288l-25.6,32.3l4.2-7.5
			l-3.7,18.3H250.7z M245,171.1l1.3-6.2h27.9l-1.3,6.2H245z"/>
		<path class="st0" d="M292.6,181.7l7.1-36.1l2.2,2.7h-15.7l1.9-9.7h38.4l-1.9,9.7h-16.1l3.2-2.7l-7.1,36.1H292.6z"/>
		<path class="st0" d="M351.1,152.3c9.6,0,14.3,3.9,14.3,11.8c0,3.5-0.9,6.6-2.6,9.2c-1.8,2.6-4.3,4.7-7.5,6.1
			c-3.2,1.5-7,2.2-11.3,2.2h-20.5l8.6-43.1h12l-2.8,13.7H351.1z M344.8,173c1.6,0,3.1-0.3,4.3-0.9c1.2-0.6,2.2-1.5,2.9-2.6
			c0.7-1.1,1-2.4,1-3.9c0-1.6-0.4-2.7-1.3-3.4c-0.9-0.7-2.3-1.1-4.2-1.1h-7.9l-2.4,11.9H344.8z M368.1,181.7l8.6-43.1h12.2
			l-8.6,43.1H368.1z"/>
		<path class="st0" d="M389.2,181.7l8.6-43.1h40.4l-8.6,43.1h-12l7.1-36.1l2.2,2.7h-21.8l3.3-2.7l-7.1,36.1H389.2z"/>
		<path class="st0" d="M452.5,181.7l27.6-43.1h12l10.4,43.1h-12.1l-7.7-37.3h4.8l-22.2,37.3H452.5z M464.6,173.3l4.9-9h21.1l1.4,9
			H464.6z"/>
		<path class="st0" d="M509.7,182.6c-1,0-1.9-0.1-2.8-0.2c-0.9-0.1-1.8-0.3-2.6-0.6l2.6-10c0.5,0.1,1,0.2,1.6,0.2
			c1.4,0,2.7-0.5,3.7-1.5c1-1,2-2.7,3-5.1c0.9-2.4,1.9-5.6,2.8-9.6l4.1-17.2h34.7l-8.6,43.1h-12l7.2-36.1l2.2,2.7h-17.4l3-2.8
			l-2.8,12.3c-1.1,4.7-2.2,8.7-3.4,11.8s-2.5,5.7-3.9,7.6c-1.4,1.9-3.1,3.3-4.9,4.2C514.3,182.1,512.1,182.6,509.7,182.6z"/>
	</g>
</g>
</svg>
