<?xml version="1.0" encoding="utf-8"?>
<!-- Generator: Adobe Illustrator 25.2.3, SVG Export Plug-In . SVG Version: 6.00 Build 0)  -->
<svg version="1.1" id="Layer_1" xmlns="http://www.w3.org/2000/svg" xmlns:xlink="http://www.w3.org/1999/xlink" x="0px" y="0px"
	 viewBox="0 0 513.6 66" style="enable-background:new 0 0 513.6 66;" xml:space="preserve">
<style type="text/css">
	.st0{fill:#FFFFFF;}
	.st1{fill:#282781;}
</style>
<path class="st0" d="M447.3,66H30.7C13.8,66,0,51.2,0,33l0,0C0,14.8,13.8,0,30.7,0h416.6C464.2,0,478,14.8,478,33l0,0
	C478,51.2,464.2,66,447.3,66z"/>
<g>
	<path class="st1" d="M45.7,48.9c-3.2,0-5.9-0.6-8.2-1.8c-2.3-1.2-4.1-2.8-5.3-4.8c-1.2-2-1.9-4.3-1.9-7s0.5-5.2,1.4-7.5
		c1-2.3,2.3-4.2,4-5.8c1.7-1.7,3.7-2.9,6.1-3.9c2.4-0.9,5-1.4,7.9-1.4c3.2,0,5.9,0.6,8.2,1.8c2.3,1.2,4.1,2.8,5.3,4.8
		s1.9,4.4,1.9,7.1s-0.5,5.2-1.4,7.5c-1,2.3-2.3,4.2-4,5.8c-1.7,1.7-3.7,2.9-6.1,3.9C51.1,48.5,48.5,48.9,45.7,48.9z M46.5,41.6
		c1.5,0,2.9-0.2,4.1-0.8s2.2-1.4,3.1-2.4c0.8-1.1,1.5-2.2,1.9-3.5s0.6-2.7,0.6-4.1s-0.3-2.6-0.9-3.7s-1.4-1.9-2.4-2.4
		s-2.4-0.9-4-0.9s-2.8,0.2-4.1,0.8S42.5,26,41.7,27c-0.8,1.1-1.5,2.2-1.9,3.5s-0.6,2.7-0.6,4.1c0,1.4,0.3,2.5,0.9,3.6
		c0.6,1.1,1.4,1.9,2.4,2.4C43.5,41.4,44.9,41.6,46.5,41.6z"/>
	<path class="st1" d="M65.9,48.3l6.2-30.9h13.2c4,0,7.1,0.9,9.3,2.6c2.2,1.7,3.2,4.1,3.2,7.2c0,2.6-0.6,4.9-1.9,6.8
		c-1.2,1.9-3,3.4-5.4,4.5c-2.3,1.1-5,1.6-8.1,1.6h-10l4.6-3.7l-2.4,12L65.9,48.3L65.9,48.3z M76.9,37.3l-3.1-4.1h9.1
		c1.9,0,3.4-0.5,4.5-1.4s1.6-2.2,1.6-3.9c0-1.3-0.4-2.3-1.3-2.8c-0.9-0.6-2-0.9-3.6-0.9h-8.5l4.7-4.1L76.9,37.3z M85.3,48.3L79,37
		h9.1l6.4,11.3H85.3z"/>
	<path class="st1" d="M98.4,48.3l6.2-30.9h15.7c3.5,0,6.2,0.6,8,1.9c1.8,1.2,2.8,3,2.8,5.4c0,1.9-0.6,3.6-1.6,4.9
		c-1.1,1.3-2.5,2.4-4.3,3c-1.8,0.7-3.8,1.1-6.1,1.1l1.2-2.1c2.8,0,5.1,0.6,6.8,1.9c1.7,1.3,2.5,3,2.5,5.2c0,2.3-0.6,4.1-1.9,5.5
		c-1.3,1.4-2.9,2.5-5.1,3.2c-2.1,0.7-4.5,1.1-7.2,1.1h-17V48.3z M108.3,42h7.6c1.5,0,2.8-0.3,3.7-0.9c0.9-0.6,1.4-1.5,1.4-2.8
		c0-0.9-0.3-1.5-1.1-2c-0.6-0.4-1.5-0.6-2.6-0.6h-8.4l1.2-6.1h7.1c1.1,0,1.9-0.2,2.6-0.4c0.7-0.2,1.3-0.6,1.6-1.2s0.6-1.2,0.6-1.9
		c0-0.9-0.3-1.5-1-1.9c-0.6-0.4-1.5-0.6-2.7-0.6h-6.2L108.3,42z"/>
	<path class="st1" d="M132.1,48.3l6.2-30.9h8.8l-6.2,30.9H132.1z"/>
	<path class="st1" d="M153,48.3l4.8-24h-9.5l1.4-7h27.7l-1.4,7h-9.5l-4.8,24H153z"/>
	<path class="st1" d="M172.9,35.8l1.3-6.5H187l-1.3,6.5H172.9z"/>
	<path class="st1" d="M188.8,48.3l6.2-30.9h13.2c4,0,7.1,0.9,9.3,2.6s3.2,4.2,3.2,7.3c0,2.6-0.6,4.9-1.9,6.8s-3,3.4-5.3,4.5
		s-5,1.6-8.1,1.6h-10.1l4.6-3.9l-2.4,11.9h-8.7V48.3z M199.7,37.3l-3.1-4.1h9.1c1.9,0,3.4-0.5,4.5-1.4s1.6-2.2,1.6-3.9
		c0-1.3-0.4-2.3-1.3-2.8c-0.9-0.6-2-0.9-3.6-0.9h-8.4l4.6-4.1L199.7,37.3z"/>
	<path class="st1" d="M220.7,48.3l6.2-30.9h13.2c4,0,7.1,0.9,9.3,2.6c2.2,1.7,3.2,4.1,3.2,7.2c0,2.6-0.6,4.9-1.9,6.8
		c-1.2,1.9-3,3.4-5.4,4.5c-2.3,1.1-5,1.6-8.1,1.6h-10.1l4.6-3.7l-2.4,12L220.7,48.3L220.7,48.3z M231.6,37.3l-3.1-4.1h9.1
		c1.9,0,3.4-0.5,4.5-1.4s1.6-2.2,1.6-3.9c0-1.3-0.4-2.3-1.3-2.8c-0.9-0.6-2-0.9-3.6-0.9h-8.4l4.7-4.1L231.6,37.3z M240.1,48.3
		L233.8,37h9.1l6.4,11.3H240.1z"/>
	<path class="st1" d="M269.5,48.9c-3.2,0-5.9-0.6-8.2-1.8c-2.3-1.2-4.1-2.8-5.3-4.8c-1.2-2-1.9-4.4-1.9-7.1c0-2.7,0.5-5.2,1.4-7.5
		c1-2.3,2.3-4.2,4-5.8c1.7-1.7,3.7-2.9,6.1-3.9s5-1.3,7.9-1.3c3.2,0,5.9,0.6,8.2,1.8c2.3,1.2,4.1,2.8,5.3,4.8c1.2,2,1.9,4.4,1.9,7.1
		s-0.5,5.2-1.4,7.5c-1,2.3-2.3,4.2-4,5.8c-1.7,1.7-3.7,2.9-6.1,3.9C275,48.5,272.3,48.9,269.5,48.9z M270.3,41.6
		c1.5,0,2.9-0.2,4.1-0.8s2.2-1.4,3.1-2.4c0.8-1.1,1.5-2.2,1.9-3.5s0.6-2.7,0.6-4.1s-0.3-2.6-0.9-3.7s-1.4-1.9-2.4-2.4
		c-1.1-0.6-2.4-0.9-4-0.9c-1.5,0-2.8,0.2-4.1,0.8c-1.2,0.6-2.3,1.4-3.1,2.4c-0.8,1.1-1.5,2.2-1.9,3.5s-0.6,2.7-0.6,4.1
		c0,1.4,0.3,2.5,0.9,3.6s1.4,1.9,2.4,2.4C267.4,41.4,268.7,41.6,270.3,41.6z"/>
	<path class="st1" d="M289.8,48.3l6.2-30.9h7.1l8.5,21.1h-3.7l16.6-21.1h7.5l-6.1,30.9h-8.1l3.7-18.8l1.5-0.1l-12.3,15.8h-3.8
		l-6.7-15.8l1.5,0.2L298,48.3C297.9,48.3,289.8,48.3,289.8,48.3z"/>
	<path class="st1" d="M348.1,48.9c-3.2,0-5.9-0.6-8.2-1.8c-2.3-1.2-4.1-2.8-5.3-4.8c-1.2-2-1.9-4.4-1.9-7.1c0-2.7,0.5-5.2,1.4-7.5
		c1-2.3,2.3-4.2,4-5.8c1.7-1.7,3.7-2.9,6.1-3.9s5-1.4,7.8-1.4c3.2,0,5.9,0.6,8.2,1.8s4.1,2.8,5.3,4.8c1.2,2,1.9,4.4,1.9,7.1
		s-0.5,5.2-1.4,7.5c-1,2.3-2.3,4.2-4,5.8c-1.7,1.7-3.7,2.9-6.1,3.9C353.5,48.5,350.9,48.9,348.1,48.9z M348.9,41.6
		c1.5,0,2.9-0.2,4.1-0.8s2.2-1.4,3.1-2.4c0.8-1.1,1.5-2.2,1.9-3.5s0.6-2.7,0.6-4.1s-0.3-2.6-0.9-3.7s-1.4-1.9-2.4-2.4
		c-1.1-0.6-2.4-0.9-4-0.9c-1.5,0-2.8,0.2-4.1,0.8c-1.2,0.6-2.3,1.4-3.1,2.4c-0.8,1.1-1.5,2.2-1.9,3.5s-0.6,2.7-0.6,4.1
		c0,1.4,0.3,2.5,0.9,3.6s1.4,1.9,2.4,2.4C346,41.4,347.3,41.6,348.9,41.6z"/>
	<path class="st1" d="M372.5,48.7c-1.4,0-2.6-0.4-3.4-1.3c-0.9-0.9-1.3-1.9-1.3-3.3c0-1.6,0.6-2.9,1.6-3.9c1.1-1,2.4-1.5,3.8-1.5
		s2.6,0.4,3.4,1.3c0.9,0.9,1.3,1.9,1.3,3.3c0,1.1-0.2,2-0.7,2.8s-1.1,1.5-1.9,1.9C374.4,48.5,373.5,48.7,372.5,48.7z"/>
	<path class="st1" d="M381.7,48.3l6.2-30.9h8.6l-6.2,30.9H381.7z M390.9,41.6l1.3-10L408,17.4h10.3l-16.2,14.4l-5.8,5L390.9,41.6z
		 M403,48.3l-8.2-12.7l6.3-5.8l11.6,18.7L403,48.3L403,48.3z"/>
	<path class="st1" d="M414,48.3l1.1-5.5l22.2-21.6l0.7,3.1h-18.9l1.4-7h26.6l-1.1,5.5l-22.2,21.6l-0.7-3.1h20l-1.4,7
		C441.7,48.3,414,48.3,414,48.3z"/>
</g>
</svg>
