<?xml version="1.0" encoding="utf-8"?>
<!-- Generator: Adobe Illustrator 25.2.3, SVG Export Plug-In . SVG Version: 6.00 Build 0)  -->
<svg version="1.1" id="Layer_1" xmlns="http://www.w3.org/2000/svg" xmlns:xlink="http://www.w3.org/1999/xlink" x="0px" y="0px"
	 viewBox="0 0 200 200" style="enable-background:new 0 0 200 200;" xml:space="preserve">
<style type="text/css">
	.st0{fill:#FFFFFF;}
	.st1{fill:#282781;}
</style>
<g>
	<rect class="st0" width="200" height="200"/>
	<g>
		<rect x="84" y="20" class="st1" width="6.4" height="6.4"/>
		<rect x="116" y="20" class="st1" width="6.4" height="6.4"/>
		<rect x="77.6" y="26.4" class="st1" width="6.4" height="6.4"/>
		<rect x="71.2" y="32.8" class="st1" width="6.4" height="6.4"/>
		<rect x="90.4" y="32.8" class="st1" width="6.4" height="6.4"/>
		<polygon class="st1" points="84,39.2 77.6,39.2 77.6,45.6 77.6,52 84,52 84,45.6 		"/>
		<polygon class="st1" points="128.8,39.2 128.8,32.8 116,32.8 116,26.4 109.6,26.4 109.6,32.8 109.6,39.2 116,39.2 116,45.6 
			128.8,45.6 		"/>
		<polygon class="st1" points="96.8,58.4 96.8,64.8 103.2,64.8 103.2,58.4 103.2,52 103.2,45.6 103.2,39.2 96.8,39.2 96.8,45.6 
			96.8,52 84,52 84,58.4 84,64.8 90.4,64.8 90.4,58.4 		"/>
		<polygon class="st1" points="116,52 116,45.6 109.6,45.6 109.6,52 109.6,58.4 109.6,64.8 116,64.8 116,58.4 122.4,58.4 122.4,52 
					"/>
		<rect x="90.4" y="64.8" class="st1" width="6.4" height="6.4"/>
		<polygon class="st1" points="103.2,71.2 96.8,71.2 96.8,77.6 90.4,77.6 90.4,84 84,84 84,90.4 77.6,90.4 77.6,96.8 84,96.8 
			84,103.2 84,109.6 96.8,109.6 96.8,103.2 96.8,96.8 90.4,96.8 90.4,90.4 96.8,90.4 96.8,96.8 103.2,96.8 103.2,90.4 109.6,90.4 
			109.6,84 109.6,77.6 109.6,71.2 109.6,64.8 103.2,64.8 		"/>
		<rect x="160.8" y="71.2" class="st1" width="6.4" height="6.4"/>
		<rect x="77.6" y="77.6" class="st1" width="6.4" height="6.4"/>
		<rect x="148" y="77.6" class="st1" width="6.4" height="6.4"/>
		<rect x="167.2" y="77.6" class="st1" width="6.4" height="6.4"/>
		<rect x="71.2" y="84" class="st1" width="6.4" height="6.4"/>
		<rect x="154.4" y="84" class="st1" width="6.4" height="6.4"/>
		<polygon class="st1" points="64.8,96.8 58.4,96.8 58.4,103.2 71.2,103.2 71.2,96.8 71.2,90.4 64.8,90.4 		"/>
		<polygon class="st1" points="167.2,96.8 160.8,96.8 160.8,103.2 167.2,103.2 167.2,109.6 167.2,116 180,116 180,109.6 180,103.2 
			180,96.8 180,90.4 167.2,90.4 		"/>
		<rect x="20" y="96.8" class="st1" width="6.4" height="6.4"/>
		<polygon class="st1" points="45.6,109.6 52,109.6 52,116 71.2,116 71.2,109.6 58.4,109.6 58.4,103.2 45.6,103.2 		"/>
		<rect x="148" y="103.2" class="st1" width="6.4" height="6.4"/>
		<rect x="20" y="109.6" class="st1" width="6.4" height="6.4"/>
		<polygon class="st1" points="39.2,109.6 39.2,103.2 39.2,96.8 58.4,96.8 58.4,90.4 64.8,90.4 64.8,84 58.4,84 58.4,77.6 
			77.6,77.6 77.6,71.2 77.6,64.8 77.6,58.4 71.2,58.4 71.2,64.8 71.2,71.2 45.6,71.2 45.6,77.6 52,77.6 52,84 45.6,84 45.6,77.6 
			39.2,77.6 39.2,71.2 20,71.2 20,77.6 26.4,77.6 26.4,84 20,84 20,90.4 32.8,90.4 32.8,96.8 32.8,103.2 32.8,109.6 32.8,116 
			39.2,116 		"/>
		<rect x="77.6" y="109.6" class="st1" width="6.4" height="6.4"/>
		<rect x="154.4" y="109.6" class="st1" width="6.4" height="6.4"/>
		<rect x="26.4" y="116" class="st1" width="6.4" height="6.4"/>
		<rect x="39.2" y="116" class="st1" width="12.8" height="6.4"/>
		<rect x="90.4" y="116" class="st1" width="6.4" height="6.4"/>
		<polygon class="st1" points="116,116 109.6,116 109.6,109.6 116,109.6 116,103.2 103.2,103.2 103.2,109.6 103.2,116 103.2,122.4 
			116,122.4 		"/>
		<rect x="20" y="122.4" class="st1" width="6.4" height="6.4"/>
		<rect x="32.8" y="122.4" class="st1" width="6.4" height="6.4"/>
		<rect x="160.8" y="122.4" class="st1" width="6.4" height="6.4"/>
		<rect x="173.6" y="122.4" class="st1" width="6.4" height="6.4"/>
		<polygon class="st1" points="90.4,128.8 90.4,135.2 84,135.2 84,141.6 96.8,141.6 96.8,148 84,148 84,154.4 90.4,154.4 
			90.4,160.8 96.8,160.8 96.8,154.4 103.2,154.4 103.2,148 103.2,141.6 109.6,141.6 109.6,135.2 116,135.2 116,128.8 103.2,128.8 
			103.2,122.4 96.8,122.4 96.8,128.8 		"/>
		<polygon class="st1" points="167.2,135.2 167.2,141.6 167.2,148 180,148 180,141.6 180,135.2 173.6,135.2 173.6,128.8 
			167.2,128.8 		"/>
		<rect x="135.2" y="135.2" class="st1" width="6.4" height="6.4"/>
		<path class="st1" d="M160.8,135.2h-6.4v-6.4v-6.4H148V116h-6.4v-6.4h-12.8v-6.4v-6.4v-6.4h6.4v6.4v6.4H148v-6.4v-6.4h-6.4V84v-6.4
			v-6.4h-12.8v-6.4v-6.4h-6.4v6.4v6.4v6.4H116V84h6.4v6.4v6.4v6.4v6.4H116v6.4h19.2v6.4h-12.8v6.4v6.4H116v6.4h6.4v6.4H116v-6.4
			h-6.4v6.4v6.4h6.4v6.4v6.4h6.4v6.4v6.4h6.4v-6.4v-6.4v-6.4h6.4v-6.4h6.4v6.4h12.8v-6.4V148h6.4v-6.4V135.2z M128.8,77.6h6.4V84
			h-6.4V77.6z M148,148h-19.2v-6.4v-6.4v-6.4H148v6.4v6.4V148z"/>
		<polygon class="st1" points="84,148 84,141.6 77.6,141.6 77.6,135.2 77.6,128.8 90.4,128.8 90.4,122.4 58.4,122.4 58.4,128.8 
			71.2,128.8 71.2,135.2 71.2,141.6 71.2,148 71.2,154.4 77.6,154.4 77.6,148 		"/>
		<rect x="160.8" y="148" class="st1" width="6.4" height="6.4"/>
		<rect x="77.6" y="154.4" class="st1" width="6.4" height="6.4"/>
		<polygon class="st1" points="103.2,160.8 96.8,160.8 96.8,167.2 109.6,167.2 109.6,160.8 109.6,154.4 103.2,154.4 		"/>
		<polygon class="st1" points="90.4,160.8 84,160.8 84,167.2 77.6,167.2 77.6,160.8 71.2,160.8 71.2,167.2 71.2,173.6 71.2,180 
			77.6,180 77.6,173.6 84,173.6 84,180 90.4,180 90.4,173.6 96.8,173.6 96.8,167.2 90.4,167.2 		"/>
		<polygon class="st1" points="173.6,167.2 173.6,173.6 167.2,173.6 167.2,180 180,180 180,173.6 180,167.2 180,160.8 173.6,160.8 
					"/>
		<polygon class="st1" points="148,167.2 148,173.6 148,180 160.8,180 160.8,173.6 160.8,167.2 160.8,160.8 154.4,160.8 
			154.4,167.2 		"/>
		<rect x="103.2" y="173.6" class="st1" width="6.4" height="6.4"/>
		<path class="st1" d="M64.8,58.4V52v-6.4v-6.4v-6.4v-6.4V20H20v6.4v6.4v6.4v6.4V52v6.4v6.4h44.8V58.4z M26.4,58.4V52v-6.4v-6.4
			v-6.4v-6.4h32v6.4v6.4v6.4V52v6.4H26.4z"/>
		<rect x="32.8" y="32.8" class="st1" width="19.2" height="19.2"/>
		<path class="st1" d="M135.2,20v6.4v6.4v6.4v6.4V52v6.4v6.4H180v-6.4V52v-6.4v-6.4v-6.4v-6.4V20H135.2z M173.6,32.8v6.4v6.4V52v6.4
			h-32V52v-6.4v-6.4v-6.4v-6.4h32V32.8z"/>
		<rect x="148" y="32.8" class="st1" width="19.2" height="19.2"/>
		<path class="st1" d="M20,141.6v6.4v6.4v6.4v6.4v6.4v6.4h44.8v-6.4v-6.4v-6.4v-6.4V148v-6.4v-6.4H20V141.6z M58.4,141.6v6.4v6.4
			v6.4v6.4v6.4h-32v-6.4v-6.4v-6.4V148v-6.4H58.4z"/>
		<rect x="32.8" y="148" class="st1" width="19.2" height="19.2"/>
	</g>
</g>
</svg>
